<svg width="20" height="20" viewBox="0 0 20 20" fill="none" xmlns="http://www.w3.org/2000/svg">
    <path opacity="0.48" fill-rule="evenodd" clip-rule="evenodd"
          d="M17.433 13.6602L14.5392 11.4202C14.3994 11.3124 14.2251 11.2591 14.049 11.2705C13.8728 11.2819 13.7068 11.3571 13.5821 11.482L12.0461 13.0187C11.9317 13.1343 11.7816 13.2079 11.6202 13.2275C11.4588 13.2472 11.2954 13.2118 11.1566 13.1271C10.6621 12.8238 9.83447 12.2362 8.79883 11.1998C7.7632 10.1649 7.17557 9.33659 6.8723 8.84277C6.78747 8.70408 6.75209 8.54076 6.77189 8.37939C6.7917 8.21802 6.86554 8.06811 6.98139 7.95405L8.51738 6.41733C8.64249 6.29267 8.71775 6.1266 8.729 5.95035C8.74025 5.77409 8.68672 5.5998 8.57847 5.46024L6.33921 2.56571C5.83012 1.90899 4.87013 1.80499 4.24468 2.35408C3.42068 3.07698 2.43087 4.15989 2.14287 5.37515C1.62142 7.56423 2.44541 10.3111 6.06721 13.9329C9.68901 17.554 12.4359 18.3787 14.6243 17.858C15.8395 17.5685 16.9232 16.578 17.6461 15.7547C18.1944 15.1293 18.0904 14.1693 17.433 13.6602Z"
          fill="#898D99"/>
</svg>
