<svg width="16" height="16" viewBox="0 0 16 16" fill="none" xmlns="http://www.w3.org/2000/svg">
<path fill-rule="evenodd" clip-rule="evenodd" d="M5.75011 13.4001C5.52011 13.4001 5.29011 13.3101 5.11011 13.1401C4.94218 12.9715 4.8479 12.7431 4.8479 12.5051C4.8479 12.2671 4.94218 12.0388 5.11011 11.8701L8.98011 8.00012L5.11011 4.14012C4.94218 3.97145 4.8479 3.74313 4.8479 3.50512C4.8479 3.26711 4.94218 3.03879 5.11011 2.87012C5.27878 2.70219 5.5071 2.60791 5.74511 2.60791C5.98312 2.60791 6.21144 2.70219 6.38011 2.87012L10.8801 7.37012C11.048 7.53879 11.1423 7.76711 11.1423 8.00512C11.1423 8.24313 11.048 8.47145 10.8801 8.64012L6.38011 13.1401C6.21011 13.3101 5.98011 13.4001 5.75011 13.4001Z" fill="#2E3C52"/>
</svg>
