<svg width="16" height="16" viewBox="0 0 16 16" fill="none" xmlns="http://www.w3.org/2000/svg">
<g opacity="0.4">
<path fill-rule="evenodd" clip-rule="evenodd" d="M10.6687 7.112C10.5098 7.11571 10.3518 7.08762 10.2039 7.02938C10.0561 6.97115 9.92138 6.88393 9.80773 6.77287C9.69407 6.66181 9.60377 6.52915 9.54214 6.38268C9.4805 6.23621 9.44877 6.0789 9.44881 5.91999C9.44886 5.76108 9.48068 5.60379 9.5424 5.45736C9.60411 5.31092 9.69449 5.17831 9.80821 5.06731C9.92192 4.95632 10.0567 4.86918 10.2046 4.81102C10.3525 4.75287 10.5105 4.72486 10.6693 4.72867C10.9805 4.73611 11.2764 4.86498 11.4938 5.08772C11.7112 5.31046 11.8329 5.6094 11.8328 5.92066C11.8327 6.23192 11.7109 6.53079 11.4934 6.75341C11.2758 6.97603 10.9798 7.10473 10.6687 7.112ZM9.51933 11.1867H5.50333C5.36174 11.1869 5.22271 11.1489 5.10086 11.0768C4.97902 11.0047 4.87886 10.901 4.81091 10.7768C4.74297 10.6526 4.70975 10.5123 4.71475 10.3708C4.71975 10.2293 4.76279 10.0918 4.83933 9.97267L6.848 6.84267C6.91928 6.73132 7.01742 6.6397 7.1334 6.57623C7.24938 6.51277 7.37946 6.47951 7.51167 6.47951C7.64387 6.47951 7.77395 6.51277 7.88993 6.57623C8.00591 6.6397 8.10406 6.73132 8.17533 6.84267L10.1827 9.97267C10.2592 10.0917 10.3022 10.2292 10.3072 10.3707C10.3123 10.5121 10.2791 10.6523 10.2112 10.7765C10.1434 10.9007 10.0433 11.0043 9.92157 11.0765C9.79981 11.1487 9.66087 11.1867 9.51933 11.1867ZM12.858 1.5H3.142C2.70651 1.5 2.28887 1.673 1.98093 1.98093C1.673 2.28887 1.5 2.70651 1.5 3.142V12.858C1.5 13.2935 1.673 13.7111 1.98093 14.0191C2.28887 14.327 2.70651 14.5 3.142 14.5H12.858C13.2935 14.5 13.7111 14.327 14.0191 14.0191C14.327 13.7111 14.5 13.2935 14.5 12.858V3.142C14.5 2.70651 14.327 2.28887 14.0191 1.98093C13.7111 1.673 13.2935 1.5 12.858 1.5Z" fill="#7D8A9F"/>
</g>
</svg>
