<svg width="52" height="52" viewBox="0 0 52 52" fill="none" xmlns="http://www.w3.org/2000/svg">
    <rect width="52" height="52" rx="4" fill="#F7F7F7"/>
    <path fill-rule="evenodd" clip-rule="evenodd"
          d="M30.003 24.668C29.7647 24.6736 29.5277 24.6314 29.3059 24.5441C29.0841 24.4567 28.8821 24.3259 28.7116 24.1593C28.5411 23.9927 28.4057 23.7937 28.3132 23.574C28.2207 23.3543 28.1732 23.1183 28.1732 22.88C28.1733 22.6416 28.221 22.4057 28.3136 22.186C28.4062 21.9664 28.5417 21.7675 28.7123 21.601C28.8829 21.4345 29.085 21.3038 29.3069 21.2165C29.5287 21.1293 29.7657 21.0873 30.004 21.093C30.4708 21.1042 30.9146 21.2975 31.2407 21.6316C31.5669 21.9657 31.7494 22.4141 31.7492 22.881C31.7491 23.3479 31.5663 23.7962 31.24 24.1301C30.9137 24.464 30.4698 24.6571 30.003 24.668ZM28.279 30.78H22.255C22.0426 30.7803 21.8341 30.7233 21.6513 30.6152C21.4685 30.507 21.3183 30.3515 21.2164 30.1652C21.1144 29.9789 21.0646 29.7685 21.0721 29.5562C21.0796 29.344 21.1442 29.1377 21.259 28.959L24.272 24.264C24.3789 24.097 24.5261 23.9595 24.7001 23.8644C24.8741 23.7692 25.0692 23.7193 25.2675 23.7193C25.4658 23.7193 25.6609 23.7692 25.8349 23.8644C26.0089 23.9595 26.1561 24.097 26.263 24.264L29.274 28.959C29.3888 29.1376 29.4533 29.3438 29.4609 29.556C29.4684 29.7682 29.4187 29.9785 29.3169 30.1648C29.2151 30.3511 29.065 30.5065 28.8823 30.6148C28.6997 30.723 28.4913 30.7801 28.279 30.78ZM33.287 16.25H18.713C18.0598 16.25 17.4333 16.5095 16.9714 16.9714C16.5095 17.4333 16.25 18.0598 16.25 18.713V33.287C16.25 33.9402 16.5095 34.5667 16.9714 35.0286C17.4333 35.4905 18.0598 35.75 18.713 35.75H33.287C33.9402 35.75 34.5667 35.4905 35.0286 35.0286C35.4905 34.5667 35.75 33.9402 35.75 33.287V18.713C35.75 18.0598 35.4905 17.4333 35.0286 16.9714C34.5667 16.5095 33.9402 16.25 33.287 16.25Z"
          fill="#C8C8C8"/>
</svg>
