<?xml version="1.0" encoding="UTF-8"?>
<svg id="_레이어_1" data-name="레이어 1" xmlns="http://www.w3.org/2000/svg" viewBox="0 0 20 20">
  <defs>
    <style>
      .cls-1 {
        fill: #898d99;
        isolation: isolate;
        opacity: .48;
      }
    </style>
  </defs>
  <path class="cls-1" d="M4.25,15.69c-.22,0-.4-.08-.55-.23-.15-.15-.23-.34-.23-.55s.08-.4.23-.55c.15-.15.34-.23.55-.23h.78v-5.65c0-1.15.35-2.18,1.05-3.07.7-.9,1.6-1.49,2.71-1.77v-.54c0-.33.12-.62.35-.85s.52-.35.85-.35.62.12.85.35c.24.23.35.52.35.85v.54c1.11.28,2.02.88,2.71,1.77.7.9,1.05,1.92,1.05,3.07v5.65h.78c.22,0,.4.08.55.23.15.15.23.34.23.55s-.08.4-.23.55c-.15.15-.34.23-.55.23H4.25ZM10,18.1c-.45,0-.84-.16-1.15-.47-.32-.32-.47-.7-.47-1.15h3.25c0,.45-.16.84-.47,1.15-.32.32-.7.47-1.15.47Z"/>
</svg>