<svg width="16" height="16" viewBox="0 0 16 16" fill="none" xmlns="http://www.w3.org/2000/svg">
<g opacity="0.6">
<path d="M8 1.01807C11.0192 1.01807 13.4773 3.42058 13.5654 6.41846L13.5684 6.58643V12.7427H13.9561C14.3346 12.7427 14.6579 13.0153 14.7227 13.3872L15 14.9819H1L1.27637 13.3882C1.34168 13.0156 1.66513 12.7438 2.04297 12.7437H2.43164V6.58643C2.43181 3.51057 4.92544 1.01807 8 1.01807ZM8.00098 8.89307C7.56439 8.89307 7.21107 9.24593 7.21094 9.68115C7.21094 10.1165 7.56431 10.4702 8.00098 10.4702C8.43617 10.47 8.78906 10.1164 8.78906 9.68115C8.78893 9.24537 8.43542 8.89323 8.00098 8.89307ZM8 4.21338C7.6688 4.21338 7.40061 4.48251 7.40039 4.81299V7.29053C7.40039 7.62253 7.66867 7.89209 8 7.89209C8.332 7.89209 8.59961 7.62253 8.59961 7.29053V4.81299C8.59939 4.48251 8.33186 4.21338 8 4.21338Z" fill="#7D8A9F"/>
</g>
</svg>
