<svg width="20" height="20" viewBox="0 0 20 20" fill="none" xmlns="http://www.w3.org/2000/svg">
<path opacity="0.48" d="M4.25 15.6925C4.03472 15.6925 3.85069 15.6162 3.69792 15.4634C3.54514 15.3106 3.46875 15.1266 3.46875 14.9113C3.46875 14.696 3.54514 14.512 3.69792 14.3592C3.85069 14.2064 4.03472 14.13 4.25 14.13H5.03125V8.48421C5.03125 7.33143 5.38021 6.30713 6.07812 5.4113C6.77604 4.51546 7.68056 3.92518 8.79167 3.64046V3.0988C8.79167 2.76546 8.90972 2.48248 9.14583 2.24984C9.38194 2.0172 9.66667 1.90088 10 1.90088C10.3333 1.90088 10.6181 2.0172 10.8542 2.24984C11.0903 2.48248 11.2083 2.76546 11.2083 3.0988V3.64046C12.3194 3.92518 13.224 4.51546 13.9219 5.4113C14.6198 6.30713 14.9688 7.33143 14.9688 8.48421V14.13H15.75C15.9653 14.13 16.1493 14.2064 16.3021 14.3592C16.4549 14.512 16.5312 14.696 16.5312 14.9113C16.5312 15.1266 16.4549 15.3106 16.3021 15.4634C16.1493 15.6162 15.9653 15.6925 15.75 15.6925H4.25ZM10 18.0988C9.54861 18.0988 9.16493 17.9408 8.84896 17.6248C8.53299 17.3089 8.375 16.9252 8.375 16.4738H11.625C11.625 16.9252 11.467 17.3089 11.151 17.6248C10.8351 17.9408 10.4514 18.0988 10 18.0988Z" fill="#898D99"/>
<circle cx="18" cy="2" r="2" fill="#FA1155"/>
</svg>
