<svg width="21" height="20" viewBox="0 0 21 20" fill="none" xmlns="http://www.w3.org/2000/svg">
<path d="M10.2803 1.27246C14.1601 1.27254 17.3186 4.27599 17.4316 8.02344L17.4355 8.23242V15.9287H17.9336C18.4202 15.9287 18.8358 16.2694 18.9189 16.7344L19.2754 18.7275H1.28516L1.64062 16.7354C1.72458 16.2695 2.14024 15.9287 2.62598 15.9287H3.12402V8.2334C3.12402 4.3884 6.32928 1.27246 10.2803 1.27246ZM10.2812 11.1162C9.72015 11.1162 9.26566 11.5574 9.26562 12.1016C9.26562 12.6457 9.72013 13.0879 10.2812 13.0879C10.8405 13.0877 11.2939 12.6456 11.2939 12.1016C11.2939 11.5567 10.8397 11.1164 10.2812 11.1162ZM10.2803 5.2666C9.85451 5.2666 9.5088 5.60328 9.50879 6.0166V9.11328C9.50879 9.52828 9.85451 9.86523 10.2803 9.86523C10.7068 9.86515 11.0508 9.52823 11.0508 9.11328V6.0166C11.0508 5.60333 10.7068 5.26669 10.2803 5.2666Z" fill="#C8C8C8"/>
</svg>
