<svg width="20" height="20" viewBox="0 0 20 20" fill="none" xmlns="http://www.w3.org/2000/svg">
    <g clip-path="url(#clip0_1_3764)">
        <path fill-rule="evenodd" clip-rule="evenodd"
              d="M14.3332 8.50016L9.6665 13.1668C9.49984 13.3335 9.33317 13.4168 9.08317 13.4168C8.83317 13.4168 8.6665 13.3335 8.49984 13.1668L5.6665 10.3335C5.33317 10.0002 5.33317 9.50016 5.6665 9.16683C5.99984 8.8335 6.49984 8.8335 6.83317 9.16683L9.08317 11.4168L13.1665 7.3335C13.4998 7.00016 13.9998 7.00016 14.3332 7.3335C14.6665 7.66683 14.6665 8.16683 14.3332 8.50016Z"
              fill="#FA1155"/>
        <path d="M10.0002 2.50016C14.1668 2.50016 17.5002 5.8335 17.5002 10.0002C17.5002 14.1668 14.1668 17.5002 10.0002 17.5002C5.8335 17.5002 2.50016 14.1668 2.50016 10.0002C2.50016 5.8335 5.8335 2.50016 10.0002 2.50016ZM10.0002 0.833496C4.91683 0.833496 0.833496 4.91683 0.833496 10.0002C0.833496 15.0835 4.91683 19.1668 10.0002 19.1668C15.0835 19.1668 19.1668 15.0835 19.1668 10.0002C19.1668 4.91683 15.0835 0.833496 10.0002 0.833496Z"
              fill="#FA1155"/>
    </g>
    <defs>
        <clipPath id="clip0_1_3764">
            <rect width="20" height="20" fill="white"/>
        </clipPath>
    </defs>
</svg>
