<svg width="16" height="16" viewBox="0 0 16 16" fill="none" xmlns="http://www.w3.org/2000/svg">
    <path fill-rule="evenodd" clip-rule="evenodd"
          d="M9.20995 8.00024L12.9773 4.23291C13.0516 4.15862 13.1106 4.07043 13.1508 3.97335C13.1911 3.87628 13.2118 3.77223 13.2118 3.66714C13.2119 3.56206 13.1912 3.458 13.151 3.3609C13.1108 3.2638 13.0519 3.17557 12.9776 3.10124C12.9033 3.02691 12.8151 2.96794 12.7181 2.9277C12.621 2.88746 12.5169 2.86673 12.4119 2.8667C12.3068 2.86667 12.2027 2.88734 12.1056 2.92752C12.0085 2.96771 11.9203 3.02662 11.846 3.10091L8.07862 6.86891L4.31062 3.10091C4.15886 2.95916 3.95796 2.88192 3.75033 2.88549C3.54269 2.88906 3.34457 2.97316 3.19777 3.12005C3.05097 3.26693 2.96699 3.46511 2.96354 3.67274C2.96009 3.88038 3.03745 4.08123 3.17929 4.23291L6.94729 8.00024L3.17929 11.7676C3.06793 11.8797 2.99221 12.0223 2.96165 12.1773C2.9311 12.3324 2.94707 12.493 3.00757 12.639C3.06806 12.785 3.17037 12.9098 3.30164 12.9978C3.4329 13.0858 3.58726 13.1331 3.74529 13.1336C3.94995 13.1336 4.15462 13.0556 4.31062 12.8996L8.07862 9.13157L11.846 12.8996C11.9202 12.974 12.0083 13.0331 12.1054 13.0734C12.2024 13.1137 12.3065 13.1344 12.4116 13.1344C12.5167 13.1344 12.6208 13.1137 12.7179 13.0734C12.8149 13.0331 12.9031 12.974 12.9773 12.8996C13.0517 12.8253 13.1107 12.737 13.1509 12.6399C13.1912 12.5428 13.2119 12.4387 13.2119 12.3336C13.2119 12.2284 13.1912 12.1243 13.1509 12.0272C13.1107 11.9301 13.0517 11.8419 12.9773 11.7676L9.20995 8.00024Z"
          fill="#FA1155"/>
</svg>
