<svg width="16" height="16" viewBox="0 0 16 16" fill="none" xmlns="http://www.w3.org/2000/svg">
<path fill-rule="evenodd" clip-rule="evenodd" d="M11.3201 8.498C11.1832 8.50144 11.0471 8.47747 10.9197 8.42748C10.7924 8.3775 10.6763 8.30252 10.5783 8.20696C10.4803 8.1114 10.4025 7.9972 10.3494 7.87109C10.2962 7.74498 10.2689 7.60951 10.2689 7.47266C10.269 7.33581 10.2964 7.20035 10.3496 7.07428C10.4028 6.9482 10.4807 6.83405 10.5788 6.73855C10.6768 6.64306 10.7929 6.56816 10.9204 6.51825C11.0478 6.46835 11.1839 6.44447 11.3207 6.448C11.588 6.4549 11.8421 6.56597 12.0287 6.75751C12.2153 6.94905 12.3197 7.20592 12.3196 7.47332C12.3195 7.74073 12.2149 7.99753 12.0282 8.18895C11.8415 8.38037 11.5874 8.49127 11.3201 8.498ZM8.04405 8.498C7.90716 8.50144 7.77096 8.47745 7.64349 8.42743C7.51601 8.37742 7.39984 8.30239 7.30181 8.20677C7.20379 8.11115 7.1259 7.99688 7.07273 7.87068C7.01956 7.74449 6.99219 7.60893 6.99224 7.47199C6.99228 7.33505 7.01974 7.19951 7.07299 7.07335C7.12624 6.94719 7.2042 6.83297 7.30229 6.73741C7.40038 6.64186 7.5166 6.5669 7.64411 6.51697C7.77162 6.46704 7.90783 6.44313 8.04472 6.44667C8.31222 6.45357 8.56643 6.56471 8.75315 6.75638C8.93987 6.94804 9.04433 7.20507 9.04424 7.47266C9.04415 7.74024 8.93953 7.9972 8.75268 8.18875C8.56584 8.3803 8.31155 8.49127 8.04405 8.498ZM4.76739 8.498C4.63058 8.50144 4.49447 8.47747 4.36708 8.42748C4.23968 8.3775 4.12358 8.30252 4.02562 8.20696C3.92766 8.1114 3.84982 7.9972 3.79669 7.87109C3.74355 7.74498 3.7162 7.60951 3.71625 7.47266C3.71629 7.33581 3.74373 7.20035 3.79695 7.07428C3.85016 6.9482 3.92808 6.83405 4.0261 6.73855C4.12412 6.64306 4.24027 6.56816 4.3677 6.51825C4.49512 6.46835 4.63125 6.44447 4.76805 6.448C5.03537 6.4549 5.28942 6.56597 5.47602 6.75751C5.66262 6.94905 5.767 7.20592 5.76691 7.47332C5.76683 7.74073 5.66227 7.99753 5.47555 8.18895C5.28883 8.38037 5.03471 8.49127 4.76739 8.498ZM8.00005 1C4.11139 1 0.947388 3.876 0.947388 7.41133C0.947388 8.92467 1.58739 10.984 3.37005 12.3133L3.16005 14.5093C3.15217 14.5903 3.16645 14.6718 3.20138 14.7452C3.2363 14.8186 3.29055 14.8812 3.35831 14.9261C3.42606 14.9711 3.50477 14.9967 3.586 15.0003C3.66722 15.004 3.7479 14.9854 3.81939 14.9467L6.10672 13.716C6.39139 13.7453 7.22739 13.8227 8.00005 13.8227C11.8887 13.8227 15.0527 10.9467 15.0527 7.41133C15.0527 3.876 11.8887 1 8.00005 1Z" fill="#C8C8C8"/>
</svg>
