<svg width="16" height="16" viewBox="0 0 16 16" fill="none" xmlns="http://www.w3.org/2000/svg">
<path fill-rule="evenodd" clip-rule="evenodd" d="M9.8594 5.02219L12.0961 7.25819L5.9754 7.25819C5.78082 7.25819 5.5942 7.33549 5.45662 7.47308C5.31903 7.61067 5.24173 7.79728 5.24173 7.99186C5.24173 8.18644 5.31903 8.37305 5.45662 8.51064C5.5942 8.64823 5.78082 8.72553 5.9754 8.72553L12.0954 8.72553L9.8594 10.9622C9.79096 11.0301 9.73665 11.1108 9.69958 11.1998C9.66251 11.2887 9.64343 11.3841 9.64343 11.4805C9.64343 11.5769 9.66251 11.6723 9.69958 11.7613C9.73665 11.8503 9.79096 11.931 9.8594 11.9989C9.9275 12.067 10.0084 12.121 10.0973 12.1579C10.1863 12.1948 10.2817 12.2138 10.3781 12.2138C10.4744 12.2138 10.5698 12.1948 10.6588 12.1579C10.7478 12.121 10.8286 12.067 10.8967 11.9989L14.3854 8.51019C14.5221 8.37234 14.5989 8.18603 14.5989 7.99186C14.5989 7.79769 14.5221 7.61138 14.3854 7.47353L10.8967 3.98486C10.7575 3.85553 10.5736 3.78521 10.3836 3.7887C10.1937 3.79219 10.0125 3.86921 9.8781 4.00356C9.74374 4.13791 9.66672 4.31913 9.66324 4.5091C9.65975 4.69907 9.73007 4.883 9.8594 5.02219Z" fill="#7D8A9F"/>
<path fill-rule="evenodd" clip-rule="evenodd" d="M7.27131 13.5874C7.27131 13.1827 6.94264 12.8534 6.53797 12.8534L3.73331 12.8534C3.25531 12.8534 2.86664 12.4647 2.86664 11.9874L2.86664 3.9974C2.86664 3.5194 3.25531 3.13073 3.73331 3.13073L6.53864 3.13073C6.73313 3.13073 6.91966 3.05347 7.05718 2.91594C7.19471 2.77841 7.27197 2.59189 7.27197 2.3974C7.27197 2.2029 7.19471 2.01638 7.05718 1.87885C6.91966 1.74132 6.73313 1.66406 6.53864 1.66406L3.73331 1.66406C2.44664 1.66406 1.39997 2.71073 1.39997 3.9974L1.39997 11.9874C1.39997 13.2734 2.44664 14.3207 3.73331 14.3207L6.53864 14.3207C6.73313 14.3207 6.91966 14.2435 7.05718 14.1059C7.19471 13.9684 7.27197 13.7819 7.27197 13.5874" fill="#7D8A9F"/>
</svg>
