<svg width="20" height="20" viewBox="0 0 20 20" fill="none" xmlns="http://www.w3.org/2000/svg">
<path fill-rule="evenodd" clip-rule="evenodd" d="M12.8124 16.75C12.6647 16.7501 12.5184 16.721 12.382 16.6643C12.2455 16.6077 12.1216 16.5247 12.0174 16.42L6.39238 10.795C6.28787 10.6905 6.20497 10.5665 6.14842 10.43C6.09186 10.2935 6.06274 10.1471 6.06274 9.99937C6.06274 9.85161 6.09186 9.70529 6.14842 9.56877C6.20497 9.43226 6.28787 9.30822 6.39238 9.20375L12.0174 3.57875C12.121 3.47065 12.2452 3.38433 12.3827 3.32485C12.5201 3.26538 12.6681 3.23395 12.8178 3.2324C12.9676 3.23085 13.1161 3.25923 13.2548 3.31585C13.3934 3.37248 13.5194 3.45622 13.6252 3.56216C13.7311 3.6681 13.8147 3.79411 13.8712 3.9328C13.9278 4.0715 13.956 4.22008 13.9544 4.36983C13.9527 4.51959 13.9211 4.66751 13.8616 4.80491C13.802 4.94231 13.7156 5.06644 13.6074 5.17L8.77863 10L13.6074 14.8287C13.7649 14.986 13.8723 15.1865 13.9159 15.4048C13.9595 15.6231 13.9373 15.8494 13.8522 16.0551C13.767 16.2608 13.6228 16.4367 13.4377 16.5604C13.2526 16.6841 13.035 16.75 12.8124 16.75Z" fill="#FA1155"/>
</svg>
