<svg width="16" height="16" viewBox="0 0 16 16" fill="none" xmlns="http://www.w3.org/2000/svg">
    <path fill-rule="evenodd" clip-rule="evenodd"
          d="M2.59988 5.74999C2.59988 5.51999 2.68988 5.28999 2.85988 5.10999C3.02855 4.94206 3.25687 4.84778 3.49488 4.84778C3.73289 4.84778 3.96121 4.94206 4.12988 5.10999L7.99988 8.97999L11.8599 5.10999C12.0285 4.94206 12.2569 4.84778 12.4949 4.84778C12.7329 4.84778 12.9612 4.94206 13.1299 5.10999C13.2978 5.27866 13.3921 5.50698 13.3921 5.74499C13.3921 5.983 13.2978 6.21132 13.1299 6.37999L8.62988 10.88C8.46121 11.0479 8.23289 11.1422 7.99488 11.1422C7.75687 11.1422 7.52855 11.0479 7.35988 10.88L2.85988 6.37999C2.68988 6.20999 2.59988 5.97999 2.59988 5.74999Z"
          fill="#FA1155"/>
</svg>
