<svg width="16" height="16" viewBox="0 0 16 16" fill="none" xmlns="http://www.w3.org/2000/svg">
<path fill-rule="evenodd" clip-rule="evenodd" d="M5.74995 2.6C5.86813 2.59994 5.98515 2.62323 6.09429 2.66854C6.20344 2.71384 6.30256 2.78027 6.38595 2.864L10.886 7.364C10.9696 7.44757 11.0359 7.5468 11.0811 7.65601C11.1264 7.76523 11.1497 7.88228 11.1497 8.0005C11.1497 8.11871 11.1264 8.23577 11.0811 8.34498C11.0359 8.45419 10.9696 8.55342 10.886 8.637L6.38595 13.137C6.30303 13.2235 6.20368 13.2925 6.09372 13.3401C5.98376 13.3877 5.8654 13.4128 5.7456 13.4141C5.62579 13.4153 5.50695 13.3926 5.39603 13.3473C5.28511 13.302 5.18435 13.235 5.09967 13.1503C5.01498 13.0655 4.94807 12.9647 4.90285 12.8538C4.85764 12.7428 4.83504 12.6239 4.83637 12.5041C4.8377 12.3843 4.86294 12.266 4.9106 12.1561C4.95827 12.0461 5.0274 11.9468 5.11395 11.864L8.97695 8L5.11395 4.137C4.9879 4.01119 4.90201 3.8508 4.86715 3.67616C4.83229 3.50151 4.85003 3.32044 4.91813 3.15588C4.98622 2.99132 5.10161 2.85066 5.24968 2.75171C5.39776 2.65275 5.57186 2.59996 5.74995 2.6Z" fill="#00347D" fill-opacity="0.08"/>
</svg>
