<svg width="16" height="16" viewBox="0 0 16 16" fill="none" xmlns="http://www.w3.org/2000/svg">
    <g clip-path="url(#clip0_1_2288)">
        <path fill-rule="evenodd" clip-rule="evenodd"
              d="M10.9947 8.6665H8.66141V10.9998C8.66141 11.1766 8.59118 11.3462 8.46615 11.4712C8.34113 11.5963 8.17156 11.6665 7.99475 11.6665C7.81794 11.6665 7.64837 11.5963 7.52334 11.4712C7.39832 11.3462 7.32808 11.1766 7.32808 10.9998V8.6665H4.99475C4.81794 8.6665 4.64837 8.59627 4.52334 8.47124C4.39832 8.34622 4.32808 8.17665 4.32808 7.99984C4.32808 7.82303 4.39832 7.65346 4.52334 7.52843C4.64837 7.40341 4.81794 7.33317 4.99475 7.33317H7.32808V4.99984C7.32808 4.82303 7.39832 4.65346 7.52334 4.52843C7.64837 4.40341 7.81794 4.33317 7.99475 4.33317C8.17156 4.33317 8.34113 4.40341 8.46615 4.52843C8.59118 4.65346 8.66141 4.82303 8.66141 4.99984V7.33317H10.9947C11.1716 7.33317 11.3411 7.40341 11.4662 7.52843C11.5912 7.65346 11.6614 7.82303 11.6614 7.99984C11.6614 8.17665 11.5912 8.34622 11.4662 8.47124C11.3411 8.59627 11.1716 8.6665 10.9947 8.6665ZM8.00008 0.666504C3.95008 0.666504 0.666748 3.94984 0.666748 7.99984C0.666748 12.0498 3.95008 15.3332 8.00008 15.3332C12.0501 15.3332 15.3334 12.0498 15.3334 7.99984C15.3334 3.94984 12.0501 0.666504 8.00008 0.666504Z"
              fill="#898D99"/>
    </g>
    <defs>
        <clipPath id="clip0_1_2288">
            <rect width="16" height="16" fill="white"/>
        </clipPath>
    </defs>
</svg>
