<svg width="16" height="16" viewBox="0 0 16 16" fill="none" xmlns="http://www.w3.org/2000/svg">
    <g clip-path="url(#clip0_1_2292)">
        <path fill-rule="evenodd" clip-rule="evenodd"
              d="M10.9947 8.70717H4.99475C4.90008 8.71008 4.80579 8.69394 4.71747 8.65972C4.62915 8.6255 4.54861 8.57389 4.48061 8.50795C4.41262 8.44201 4.35856 8.36309 4.32164 8.27586C4.28472 8.18864 4.2657 8.09489 4.2657 8.00017C4.2657 7.90545 4.28472 7.8117 4.32164 7.72448C4.35856 7.63725 4.41262 7.55833 4.48061 7.49239C4.54861 7.42645 4.62915 7.37484 4.71747 7.34062C4.80579 7.3064 4.90008 7.29026 4.99475 7.29317H10.9947C11.1785 7.29881 11.3528 7.37577 11.4808 7.50775C11.6088 7.63972 11.6804 7.81633 11.6804 8.00017C11.6804 8.18401 11.6088 8.36062 11.4808 8.49259C11.3528 8.62457 11.1785 8.70153 10.9947 8.70717ZM8.00008 0.666504C3.95008 0.666504 0.666748 3.94984 0.666748 7.99984C0.666748 12.0505 3.95008 15.3332 8.00008 15.3332C12.0501 15.3332 15.3334 12.0505 15.3334 7.99984C15.3334 3.94984 12.0501 0.666504 8.00008 0.666504Z"
              fill="#898D99"/>
    </g>
    <defs>
        <clipPath id="clip0_1_2292">
            <rect width="16" height="16" fill="white"/>
        </clipPath>
    </defs>
</svg>
