<svg width="16" height="16" viewBox="0 0 16 16" fill="none" xmlns="http://www.w3.org/2000/svg">
    <path opacity="0.48" fill-rule="evenodd" clip-rule="evenodd"
          d="M6.66616 3.33333C6.66621 3.15819 6.70075 2.98478 6.76781 2.82299C6.83487 2.6612 6.93315 2.5142 7.05702 2.39039C7.18089 2.26658 7.32794 2.16838 7.48977 2.10139C7.65159 2.03441 7.82502 1.99996 8.00016 2C8.1753 2.00004 8.34872 2.03458 8.51051 2.10165C8.6723 2.16871 8.8193 2.26698 8.94311 2.39086C9.06692 2.51473 9.16512 2.66178 9.2321 2.8236C9.29909 2.98543 9.33354 3.15886 9.3335 3.334C9.33341 3.68771 9.19281 4.0269 8.94264 4.27695C8.69247 4.527 8.35321 4.66742 7.9995 4.66733C7.64579 4.66725 7.3066 4.52665 7.05655 4.27648C6.8065 4.0263 6.66607 3.68704 6.66616 3.33333ZM6.66616 7.84733C6.66616 7.49371 6.80664 7.15457 7.05669 6.90452C7.30674 6.65448 7.64587 6.514 7.9995 6.514C8.35312 6.514 8.69226 6.65448 8.94231 6.90452C9.19235 7.15457 9.33283 7.49371 9.33283 7.84733C9.33283 8.20096 9.19235 8.54009 8.9423 8.79014C8.69226 9.04019 8.35312 9.18067 7.9995 9.18067C7.64587 9.18067 7.30674 9.04019 7.05669 8.79014C6.80664 8.54009 6.66616 8.20096 6.66616 7.84733ZM6.66616 12.3607C6.66621 12.1855 6.70075 12.0121 6.76781 11.8503C6.83487 11.6885 6.93315 11.5415 7.05702 11.4177C7.18089 11.2939 7.32794 11.1957 7.48977 11.1287C7.65159 11.0617 7.82502 11.0273 8.00016 11.0273C8.1753 11.0274 8.34872 11.0619 8.51051 11.129C8.6723 11.196 8.8193 11.2943 8.94311 11.4182C9.06692 11.5421 9.16512 11.6891 9.2321 11.8509C9.29909 12.0128 9.33354 12.1862 9.3335 12.3613C9.33341 12.715 9.19281 13.0542 8.94264 13.3043C8.69247 13.5543 8.35321 13.6948 7.9995 13.6947C7.64579 13.6946 7.3066 13.554 7.05655 13.3038C6.8065 13.0536 6.66607 12.7144 6.66616 12.3607Z"
          fill="#898D99"/>
</svg>
