<svg width="16" height="16" viewBox="0 0 16 16" fill="none" xmlns="http://www.w3.org/2000/svg">
<path fill-rule="evenodd" clip-rule="evenodd" d="M7.26929 14.3513C7.71329 14.6447 8.28596 14.6447 8.72929 14.3513C10.1393 13.4207 13.2093 11.196 14.532 8.70667C16.2753 5.42267 14.228 2.14734 11.5213 2.14734C9.97863 2.14734 9.05062 2.95334 8.53729 3.64601C8.47564 3.73084 8.39478 3.79988 8.30133 3.84749C8.20789 3.89509 8.1045 3.91991 7.99963 3.91991C7.89475 3.91991 7.79137 3.89509 7.69792 3.84749C7.60447 3.79988 7.52362 3.73084 7.46196 3.64601C6.94863 2.95334 6.02063 2.14734 4.47796 2.14734C1.77129 2.14734 -0.276041 5.42267 1.46796 8.70667C2.78929 11.196 5.86063 13.4207 7.26929 14.3513Z" fill="#FA1155"/>
</svg>
