<svg width="16" height="16" viewBox="0 0 16 16" fill="none" xmlns="http://www.w3.org/2000/svg">
    <path fill-rule="evenodd" clip-rule="evenodd"
          d="M7.26929 14.3512C7.71329 14.6446 8.28596 14.6446 8.72929 14.3512C10.1393 13.4206 13.2093 11.1959 14.532 8.70655C16.2753 5.42255 14.228 2.14722 11.5213 2.14722C9.97863 2.14722 9.05062 2.95322 8.53729 3.64588C8.47564 3.73072 8.39478 3.79976 8.30133 3.84737C8.20789 3.89497 8.1045 3.91979 7.99963 3.91979C7.89475 3.91979 7.79137 3.89497 7.69792 3.84737C7.60447 3.79976 7.52362 3.73072 7.46196 3.64588C6.94863 2.95322 6.02063 2.14722 4.47796 2.14722C1.77129 2.14722 -0.276041 5.42255 1.46796 8.70655C2.78929 11.1959 5.86063 13.4206 7.26929 14.3512Z"
          fill="#C8C8C8"/>
</svg>
