<svg width="16" height="16" viewBox="0 0 16 16" fill="none" xmlns="http://www.w3.org/2000/svg">
<rect width="16" height="16" rx="8" fill="#F7F7F7"/>
<g clip-path="url(#clip0_1_2840)">
<path fill-rule="evenodd" clip-rule="evenodd" d="M11.1053 4.89449C10.7243 4.5143 10.208 4.30078 9.66967 4.30078C9.13138 4.30078 8.61507 4.5143 8.234 4.89449L7.54967 5.57849C7.485 5.64809 7.44985 5.74005 7.45159 5.83504C7.45333 5.93002 7.49184 6.02063 7.55902 6.08781C7.6262 6.15499 7.7168 6.19349 7.81179 6.19524C7.90678 6.19698 7.99874 6.16182 8.06834 6.09716L8.75267 5.41316C8.99607 5.17032 9.32585 5.03394 9.66967 5.03394C10.0135 5.03394 10.3433 5.17032 10.5867 5.41316C10.7075 5.53329 10.8033 5.67619 10.8685 5.83359C10.9338 5.991 10.9671 6.15978 10.9667 6.33016C10.9671 6.50054 10.9338 6.66933 10.8686 6.82674C10.8033 6.98414 10.7075 7.12704 10.5867 7.24716L9.38634 8.44749C8.89667 8.93749 8.04234 8.93749 7.55234 8.44749C7.47122 8.36663 7.40117 8.2754 7.344 8.17616C7.29556 8.09182 7.21559 8.03018 7.1217 8.0048C7.0278 7.97942 6.92767 7.99238 6.84334 8.04083C6.759 8.08927 6.69736 8.16924 6.67198 8.26313C6.6466 8.35702 6.65956 8.45715 6.708 8.54149C6.797 8.69583 6.90634 8.83883 7.03367 8.96616C7.2218 9.15524 7.44554 9.30515 7.69197 9.40722C7.93839 9.50929 8.20261 9.5615 8.46934 9.56083C8.73607 9.56154 9.00029 9.50935 9.24673 9.40728C9.49316 9.3052 9.7169 9.15527 9.905 8.96616L11.1053 7.76616C11.2945 7.57795 11.4445 7.3541 11.5465 7.10755C11.6486 6.86101 11.7008 6.59666 11.7 6.32982C11.7007 6.06309 11.6485 5.79887 11.5465 5.55244C11.4444 5.30601 11.2944 5.08226 11.1053 4.89416" fill="#4D67EB"/>
<path fill-rule="evenodd" clip-rule="evenodd" d="M7.93167 9.90248L7.24733 10.5868C7.00385 10.8295 6.6741 10.9658 6.33034 10.9658C5.98657 10.9658 5.65682 10.8295 5.41334 10.5868C5.29258 10.4666 5.19683 10.3237 5.1316 10.1663C5.06638 10.0089 5.03298 9.84018 5.03334 9.66981C5.03334 9.32348 5.16834 8.99781 5.41334 8.75315L6.61367 7.55248C6.75466 7.41179 6.92612 7.30542 7.1148 7.24161C7.30348 7.1778 7.50431 7.15825 7.70175 7.18448C7.89919 7.21071 8.08795 7.28202 8.25342 7.39288C8.41889 7.50374 8.55664 7.65119 8.656 7.82381C8.67999 7.86557 8.71197 7.9022 8.75011 7.9316C8.78825 7.961 8.83182 7.9826 8.87831 7.99517C8.9248 8.00774 8.97331 8.01103 9.02107 8.00484C9.06883 7.99866 9.11491 7.98313 9.15667 7.95915C9.19843 7.93516 9.23506 7.90318 9.26446 7.86504C9.29386 7.82689 9.31546 7.78333 9.32803 7.73684C9.34059 7.69035 9.34388 7.64184 9.3377 7.59408C9.33152 7.54632 9.31599 7.50024 9.292 7.45848C9.13637 7.18837 8.9207 6.95766 8.66168 6.78421C8.40265 6.61075 8.1072 6.49918 7.79818 6.45813C7.48915 6.41708 7.17482 6.44765 6.8795 6.54747C6.58417 6.6473 6.31575 6.8137 6.095 7.03381L4.89467 8.23415C4.70559 8.42227 4.55568 8.64602 4.4536 8.89245C4.35153 9.13887 4.29933 9.40309 4.3 9.66981C4.3 10.2121 4.51134 10.7221 4.89467 11.1055C5.08301 11.2942 5.30682 11.4438 5.55321 11.5457C5.7996 11.6476 6.06371 11.6997 6.33034 11.6991C6.85034 11.6991 7.37 11.5011 7.766 11.1058L8.45034 10.4215C8.515 10.3519 8.55016 10.2599 8.54841 10.1649C8.54667 10.0699 8.50816 9.97934 8.44099 9.91216C8.37381 9.84499 8.2832 9.80648 8.18821 9.80473C8.09323 9.80299 8.00127 9.83815 7.93167 9.90281" fill="#4D67EB"/>
</g>
<defs>
<clipPath id="clip0_1_2840">
<rect width="8" height="8" fill="white" transform="translate(4 4)"/>
</clipPath>
</defs>
</svg>
