<svg width="32" height="32" viewBox="0 0 32 32" fill="none" xmlns="http://www.w3.org/2000/svg">
    <rect width="32" height="32" rx="16" fill="white"/>
    <path opacity="0.48"
          d="M10.6666 21.3333C10.2999 21.3333 9.98603 21.2027 9.72492 20.9416C9.46381 20.6805 9.33325 20.3666 9.33325 20V12C9.33325 11.6333 9.46381 11.3194 9.72492 11.0583C9.98603 10.7972 10.2999 10.6666 10.6666 10.6666H21.3333C21.6999 10.6666 22.0138 10.7972 22.2749 11.0583C22.536 11.3194 22.6666 11.6333 22.6666 12V20C22.6666 20.3666 22.536 20.6805 22.2749 20.9416C22.0138 21.2027 21.6999 21.3333 21.3333 21.3333H10.6666ZM15.9999 16.55C16.0555 16.55 16.1138 16.5416 16.1749 16.525C16.236 16.5083 16.2944 16.4833 16.3499 16.45L21.0666 13.5C21.1555 13.4444 21.2221 13.375 21.2666 13.2916C21.311 13.2083 21.3333 13.1166 21.3333 13.0166C21.3333 12.7944 21.2388 12.6277 21.0499 12.5166C20.861 12.4055 20.6666 12.4111 20.4666 12.5333L15.9999 15.3333L11.5333 12.5333C11.3333 12.4111 11.1388 12.4083 10.9499 12.525C10.761 12.6416 10.6666 12.8055 10.6666 13.0166C10.6666 13.1277 10.6888 13.225 10.7333 13.3083C10.7777 13.3916 10.8444 13.4555 10.9333 13.5L15.6499 16.45C15.7055 16.4833 15.7638 16.5083 15.8249 16.525C15.886 16.5416 15.9444 16.55 15.9999 16.55Z"
          fill="#898D99"/>
</svg>
