<svg width="44" height="44" viewBox="0 0 44 44" fill="none" xmlns="http://www.w3.org/2000/svg">
<rect width="44" height="44" rx="22" fill="#00347D" fill-opacity="0.08"/>
<g clip-path="url(#clip0_1_1571)">
<path fill-rule="evenodd" clip-rule="evenodd" d="M22 14.4082C21.2044 14.4082 20.4413 14.7243 19.8787 15.2869C19.3161 15.8495 19 16.6126 19 17.4082V21.5435C19 22.3392 19.3161 23.1022 19.8787 23.6649C20.4413 24.2275 21.2044 24.5435 22 24.5435C22.7956 24.5435 23.5587 24.2275 24.1213 23.6649C24.6839 23.1022 25 22.3392 25 21.5435V17.4082C25 16.6126 24.6839 15.8495 24.1213 15.2869C23.5587 14.7243 22.7956 14.4082 22 14.4082Z" fill="#C8C8C8"/>
<path fill-rule="evenodd" clip-rule="evenodd" d="M27.7339 21.5436C27.7339 21.3668 27.6637 21.1972 27.5387 21.0722C27.4136 20.9472 27.2441 20.877 27.0673 20.877C26.8905 20.877 26.7209 20.9472 26.5959 21.0722C26.4708 21.1972 26.4006 21.3668 26.4006 21.5436C26.3994 22.7104 25.9353 23.829 25.1103 24.654C24.2853 25.479 23.1667 25.9431 21.9999 25.9443C20.8334 25.9429 19.7151 25.4789 18.8902 24.654C18.0654 23.8291 17.6013 22.7108 17.5999 21.5443C17.5999 21.3675 17.5297 21.1979 17.4047 21.0729C17.2796 20.9479 17.1101 20.8776 16.9333 20.8776C16.7565 20.8776 16.5869 20.9479 16.4619 21.0729C16.3368 21.1979 16.2666 21.3675 16.2666 21.5443C16.2666 24.4796 18.4853 26.9043 21.3333 27.2356V29.3336C21.3333 29.5104 21.4035 29.68 21.5285 29.805C21.6536 29.93 21.8231 30.0003 21.9999 30.0003C22.1767 30.0003 22.3463 29.93 22.4713 29.805C22.5964 29.68 22.6666 29.5104 22.6666 29.3336V27.2356C25.5153 26.9036 27.7339 24.4796 27.7339 21.5436Z" fill="#C8C8C8"/>
</g>
<defs>
<clipPath id="clip0_1_1571">
<rect width="16" height="16" fill="white" transform="translate(14 14)"/>
</clipPath>
</defs>
</svg>
