<svg width="12" height="12" viewBox="0 0 12 12" fill="none" xmlns="http://www.w3.org/2000/svg">
    <g opacity="0.8">
        <path fill-rule="evenodd" clip-rule="evenodd"
              d="M10.1589 5.40005H6.65889V1.90005C6.65889 1.74092 6.59567 1.58831 6.48315 1.47578C6.37063 1.36326 6.21802 1.30005 6.05889 1.30005C5.89976 1.30005 5.74714 1.36326 5.63462 1.47578C5.5221 1.58831 5.45889 1.74092 5.45889 1.90005V5.40005H1.95889C1.79976 5.40005 1.64714 5.46326 1.53462 5.57578C1.4221 5.68831 1.35889 5.84092 1.35889 6.00005C1.35889 6.15918 1.4221 6.31179 1.53462 6.42431C1.64714 6.53683 1.79976 6.60005 1.95889 6.60005H5.45889V10.1C5.45889 10.2592 5.5221 10.4118 5.63462 10.5243C5.74714 10.6368 5.89976 10.7 6.05889 10.7C6.21802 10.7 6.37063 10.6368 6.48315 10.5243C6.59567 10.4118 6.65889 10.2592 6.65889 10.1V6.60005H10.1589C10.318 6.60005 10.4706 6.53683 10.5832 6.42431C10.6957 6.31179 10.7589 6.15918 10.7589 6.00005C10.7589 5.84092 10.6957 5.68831 10.5832 5.57578C10.4706 5.46326 10.318 5.40005 10.1589 5.40005Z"
              fill="white"/>
    </g>
</svg>
