<svg width="44" height="44" viewBox="0 0 44 44" fill="none" xmlns="http://www.w3.org/2000/svg">
<rect width="44" height="44" rx="22" fill="#00347D" fill-opacity="0.08"/>
<path d="M16.6666 27.3337C16.2999 27.3337 15.986 27.2031 15.7249 26.942C15.4638 26.6809 15.3333 26.367 15.3333 26.0003V18.0003C15.3333 17.6337 15.4638 17.3198 15.7249 17.0587C15.986 16.7975 16.2999 16.667 16.6666 16.667H24.6666C25.0333 16.667 25.3471 16.7975 25.6083 17.0587C25.8694 17.3198 25.9999 17.6337 25.9999 18.0003V21.0003L28.0999 18.9003C28.211 18.7892 28.3333 18.7614 28.4666 18.817C28.5999 18.8725 28.6666 18.9781 28.6666 19.1337V24.867C28.6666 25.0225 28.5999 25.1281 28.4666 25.1837C28.3333 25.2392 28.211 25.2114 28.0999 25.1003L25.9999 23.0003V26.0003C25.9999 26.367 25.8694 26.6809 25.6083 26.942C25.3471 27.2031 25.0333 27.3337 24.6666 27.3337H16.6666Z" fill="#C8C8C8"/>
</svg>
