<svg width="44" height="44" viewBox="0 0 44 44" fill="none" xmlns="http://www.w3.org/2000/svg">
<rect width="44" height="44" rx="22" fill="#00347D" fill-opacity="0.08"/>
<path d="M23.4517 15.2178C23.709 15.2177 23.9615 15.2888 24.1812 15.4229C24.4009 15.5569 24.5801 15.7486 24.6978 15.9775L25.439 17.4238H27.4087C27.6294 17.4237 27.8484 17.4674 28.0522 17.5518C28.2559 17.6361 28.4412 17.7601 28.5972 17.916C28.7531 18.072 28.877 18.2572 28.9614 18.4609C29.0458 18.6647 29.0893 18.883 29.0894 19.1035V26.8379C29.0893 27.0584 29.0458 27.2767 28.9614 27.4805C28.877 27.6843 28.7532 27.8704 28.5972 28.0264C28.4413 28.1822 28.2559 28.3053 28.0522 28.3896C27.8484 28.474 27.6294 28.5177 27.4087 28.5176H16.5913C16.3706 28.5177 16.1517 28.474 15.9478 28.3896C15.7441 28.3053 15.5587 28.1822 15.4028 28.0264C15.2468 27.8704 15.123 27.6843 15.0386 27.4805C14.9542 27.2767 14.9107 27.0584 14.9106 26.8379V19.1035C14.9107 18.883 14.9542 18.6647 15.0386 18.4609C15.123 18.2572 15.2469 18.072 15.4028 17.916C15.5588 17.7601 15.744 17.6361 15.9478 17.5518C16.1517 17.4674 16.3706 17.4237 16.5913 17.4238H18.561L19.2515 16.0049C19.3664 15.769 19.5455 15.5698 19.7681 15.4307C19.9906 15.2916 20.2479 15.2177 20.5103 15.2178H23.4517ZM25.6499 22.2236C25.3794 22.2237 25.158 22.4444 25.1577 22.7148V23.1299C25.1575 24.2738 24.2265 25.2041 23.0825 25.2041H19.9702L20.1997 24.9746C20.2921 24.8822 20.3442 24.7567 20.3442 24.626C20.3442 24.4953 20.2921 24.3697 20.1997 24.2773C20.1073 24.1851 19.9817 24.1338 19.8511 24.1338C19.7204 24.1339 19.5948 24.185 19.5024 24.2773L18.4321 25.3477C18.3379 25.4378 18.2887 25.5652 18.2886 25.6963C18.2886 25.8274 18.3421 25.9506 18.4321 26.0449L19.5024 27.1152C19.5949 27.2074 19.7205 27.2597 19.8511 27.2598C19.9818 27.2598 20.1072 27.2075 20.1997 27.1152C20.3924 26.9225 20.3924 26.6107 20.1997 26.418L19.9702 26.1885H23.0825C24.7678 26.1885 26.1419 24.8152 26.1421 23.1299V22.7148C26.1419 22.4403 25.9204 22.2236 25.6499 22.2236ZM24.1489 18.4736C24.0842 18.4736 24.0202 18.487 23.9604 18.5117C23.9007 18.5365 23.8461 18.5724 23.8003 18.6182C23.7079 18.7105 23.6558 18.8362 23.6558 18.9668C23.6558 19.0974 23.708 19.223 23.8003 19.3154L24.0298 19.5449H20.9175C19.2321 19.545 17.8579 20.9191 17.8579 22.6045V23.0186C17.8579 23.2891 18.0796 23.5106 18.3501 23.5107C18.6208 23.5107 18.8423 23.2933 18.8423 23.0186V22.6045C18.8423 21.4604 19.7734 20.5293 20.9175 20.5293H24.0298L23.8003 20.7588C23.7079 20.8512 23.6558 20.9768 23.6558 21.1074C23.6558 21.2381 23.708 21.3636 23.8003 21.4561C23.8927 21.5485 24.0182 21.6006 24.1489 21.6006C24.2797 21.6006 24.4051 21.5485 24.4976 21.4561L25.5679 20.3857C25.658 20.2914 25.7114 20.1683 25.7114 20.0371C25.7113 19.906 25.658 19.7827 25.5679 19.6885L24.4976 18.6182C24.4518 18.5725 24.3971 18.5365 24.3374 18.5117C24.2777 18.487 24.2136 18.4736 24.1489 18.4736Z" fill="#C8C8C8"/>
</svg>
