<svg width="32" height="32" viewBox="0 0 32 32" fill="none" xmlns="http://www.w3.org/2000/svg">
<path d="M22.566 21.4339L19.4946 18.3626C20.218 17.4039 20.652 16.2159 20.652 14.9252C20.652 11.7679 18.0826 9.19922 14.926 9.19922C11.7686 9.19989 9.19995 11.7686 9.19995 14.9259C9.19995 18.0826 11.7686 20.6519 14.926 20.6519C16.216 20.6519 17.4046 20.2179 18.3633 19.4946L21.4346 22.5659C21.5906 22.7219 21.7953 22.7999 22 22.7999C22.2046 22.7999 22.4093 22.7219 22.566 22.5652C22.878 22.2532 22.878 21.7466 22.566 21.4339ZM10.8 14.9259C10.8 12.6506 12.6506 10.7999 14.926 10.7999C17.2006 10.7999 19.0513 12.6506 19.0513 14.9252C19.0513 17.1999 17.2006 19.0506 14.926 19.0506C12.6506 19.0512 10.8 17.2006 10.8 14.9259Z" fill="#FA1155"/>
</svg>
