<svg width="66" height="66" viewBox="0 0 66 66" fill="none" xmlns="http://www.w3.org/2000/svg">
    <rect width="66" height="66" rx="33" fill="white" fill-opacity="0.96"/>
    <rect width="66" height="66" rx="33" fill="url(#paint0_linear_1_641)"/>
    <path d="M42.849 41.1509L38.242 36.544C39.327 35.106 39.978 33.3239 39.978 31.3879C39.978 26.6519 36.124 22.799 31.389 22.799C26.653 22.8 22.8 26.653 22.8 31.389C22.8 36.124 26.653 39.978 31.389 39.978C33.324 39.978 35.107 39.327 36.545 38.242L41.152 42.849C41.386 43.083 41.693 43.2 42 43.2C42.307 43.2 42.614 43.083 42.849 42.8479C43.317 42.3799 43.317 41.6199 42.849 41.1509ZM25.2 31.389C25.2 27.976 27.976 25.1999 31.389 25.1999C34.801 25.1999 37.577 27.976 37.577 31.3879C37.577 34.7999 34.801 37.576 31.389 37.576C27.976 37.577 25.2 34.801 25.2 31.389Z"
          fill="white"/>
    <defs>
        <linearGradient id="paint0_linear_1_641" x1="8.05789e-07" y1="3.28166" x2="66" y2="66"
                        gradientUnits="userSpaceOnUse">
            <stop stop-color="#EA0098"/>
            <stop offset="0.5" stop-color="#FA1155"/>
        </linearGradient>
    </defs>
</svg>
