<svg width="40" height="40" viewBox="0 0 40 40" fill="none" xmlns="http://www.w3.org/2000/svg">
<path fill-rule="evenodd" clip-rule="evenodd" d="M21.7876 4.49432L25.3942 12.1311C25.6841 12.745 26.2451 13.1709 26.8945 13.2697L34.9587 14.4942C36.5923 14.742 37.2463 16.8428 36.0622 18.0462L30.2268 23.9904C29.9956 24.2261 29.8225 24.5171 29.7226 24.8381C29.6227 25.1592 29.599 25.5008 29.6534 25.8336L31.0312 34.2268C31.3102 35.9291 29.6022 37.2248 28.1407 36.4231L20.9274 32.4597C20.6416 32.3025 20.3235 32.2204 20.0006 32.2204C19.6776 32.2204 19.3595 32.3025 19.0737 32.4597L11.8605 36.4231C10.3974 37.2248 8.68936 35.9291 8.96835 34.2268L10.3462 25.8336C10.4005 25.5008 10.3766 25.1592 10.2767 24.8382C10.1769 24.5171 10.0039 24.2262 9.77275 23.9904L3.93736 18.0462C2.75478 16.8428 3.40729 14.742 5.04244 14.4942L13.105 13.2697C13.7544 13.1709 14.3171 12.745 14.6069 12.1311L18.212 4.49432C18.9435 2.9459 21.056 2.9459 21.7876 4.49432Z" fill="#FFC42B"/>
</svg>
