<svg width="20" height="20" viewBox="0 0 20 20" fill="none" xmlns="http://www.w3.org/2000/svg">
<path fill-rule="evenodd" clip-rule="evenodd" d="M18.6167 14.0941L15.3008 11.5274C15.1407 11.4039 14.941 11.3429 14.7391 11.3559C14.5373 11.369 14.3471 11.4551 14.2042 11.5983L12.4442 13.3591C12.3131 13.4915 12.1411 13.5758 11.9562 13.5984C11.7712 13.6209 11.584 13.5804 11.425 13.4833C10.8583 13.1358 9.91 12.4624 8.72333 11.2749C7.53667 10.0891 6.86333 9.13995 6.51583 8.57412C6.41864 8.41519 6.37809 8.22806 6.40078 8.04316C6.42348 7.85825 6.50809 7.68648 6.64083 7.55578L8.40083 5.79495C8.54419 5.65211 8.63042 5.46182 8.64331 5.25986C8.6562 5.0579 8.59487 4.85819 8.47083 4.69828L5.905 1.38162C5.32167 0.629117 4.22167 0.50995 3.505 1.13912C2.56083 1.96745 1.42667 3.20828 1.09667 4.60078C0.499167 7.10912 1.44333 10.2566 5.59333 14.4066C9.74333 18.5558 12.8908 19.5008 15.3983 18.9041C16.7908 18.5724 18.0325 17.4374 18.8608 16.4941C19.4892 15.7774 19.37 14.6774 18.6167 14.0941Z" fill="#C8C8C8"/>
</svg>
