<svg width="20" height="20" viewBox="0 0 20 20" fill="none" xmlns="http://www.w3.org/2000/svg">
<path d="M3.33333 16.6663C2.875 16.6663 2.48264 16.5031 2.15625 16.1768C1.82986 15.8504 1.66667 15.458 1.66667 14.9997V4.99967C1.66667 4.54134 1.82986 4.14898 2.15625 3.82259C2.48264 3.4962 2.875 3.33301 3.33333 3.33301H13.3333C13.7917 3.33301 14.184 3.4962 14.5104 3.82259C14.8368 4.14898 15 4.54134 15 4.99967V8.74967L17.625 6.12467C17.7639 5.98579 17.9167 5.95106 18.0833 6.02051C18.25 6.08995 18.3333 6.2219 18.3333 6.41634V13.583C18.3333 13.7775 18.25 13.9094 18.0833 13.9788C17.9167 14.0483 17.7639 14.0136 17.625 13.8747L15 11.2497V14.9997C15 15.458 14.8368 15.8504 14.5104 16.1768C14.184 16.5031 13.7917 16.6663 13.3333 16.6663H3.33333Z" fill="#C8C8C8"/>
</svg>
