<svg width="16" height="16" viewBox="0 0 16 16" fill="none" xmlns="http://www.w3.org/2000/svg">
    <g opacity="0.6" clip-path="url(#clip0_57_17091)">
        <path fill-rule="evenodd" clip-rule="evenodd"
              d="M10.8047 9.86184C10.8666 9.92373 10.9157 9.99722 10.9492 10.0781C10.9827 10.159 11 10.2456 11 10.3332C11 10.4207 10.9827 10.5074 10.9492 10.5883C10.9157 10.6691 10.8666 10.7426 10.8047 10.8045C10.7429 10.8664 10.6694 10.9155 10.5885 10.949C10.5076 10.9825 10.4209 10.9997 10.3334 10.9997C10.2459 10.9997 10.1592 10.9825 10.0783 10.949C9.99746 10.9155 9.92398 10.8664 9.86208 10.8045L8.00008 8.9425L6.13808 10.8045C6.07631 10.8666 6.00287 10.9159 5.92198 10.9496C5.84109 10.9832 5.75435 11.0005 5.66675 11.0005C5.57914 11.0005 5.4924 10.9832 5.41151 10.9496C5.33062 10.9159 5.25718 10.8666 5.19542 10.8045C5.13345 10.7426 5.08429 10.6692 5.05075 10.5883C5.01721 10.5074 4.99995 10.4207 4.99995 10.3332C4.99995 10.2456 5.01721 10.1589 5.05075 10.078C5.08429 9.99717 5.13345 9.9237 5.19542 9.86184L7.05742 7.99984L5.19542 6.13784C5.13352 6.07594 5.08442 6.00246 5.05092 5.92159C5.01742 5.84072 5.00018 5.75404 5.00018 5.6665C5.00018 5.57897 5.01742 5.49229 5.05092 5.41142C5.08442 5.33055 5.13352 5.25707 5.19541 5.19517C5.25731 5.13327 5.33079 5.08418 5.41166 5.05068C5.49254 5.01718 5.57921 4.99994 5.66675 4.99994C5.75428 4.99994 5.84096 5.01718 5.92183 5.05068C6.0027 5.08418 6.07619 5.13327 6.13808 5.19517L8.00008 7.05717L9.86208 5.19517C9.92398 5.13327 9.99746 5.08418 10.0783 5.05068C10.1592 5.01718 10.2459 4.99994 10.3334 4.99994C10.4209 4.99994 10.5076 5.01718 10.5885 5.05068C10.6694 5.08418 10.7429 5.13327 10.8047 5.19517C10.8666 5.25707 10.9157 5.33055 10.9492 5.41142C10.9827 5.49229 11 5.57897 11 5.6665C11 5.75404 10.9827 5.84072 10.9492 5.92159C10.9157 6.00246 10.8666 6.07594 10.8047 6.13784L8.94275 7.99984L10.8047 9.86184ZM8.00008 0.666504C3.95008 0.666504 0.666748 3.94984 0.666748 7.99984C0.666748 12.0498 3.95008 15.3332 8.00008 15.3332C12.0501 15.3332 15.3334 12.0498 15.3334 7.99984C15.3334 3.94984 12.0501 0.666504 8.00008 0.666504Z"
              fill="#7D8A9F"/>
    </g>
    <defs>
        <clipPath id="clip0_57_17091">
            <rect width="16" height="16" fill="white"/>
        </clipPath>
    </defs>
</svg>
