<svg width="12" height="12" viewBox="0 0 12 12" fill="none" xmlns="http://www.w3.org/2000/svg">
    <path fill-rule="evenodd" clip-rule="evenodd"
          d="M10.1589 5.39981H6.65889V1.8998C6.65889 1.74067 6.59567 1.58806 6.48315 1.47554C6.37063 1.36302 6.21802 1.2998 6.05889 1.2998C5.89976 1.2998 5.74714 1.36302 5.63462 1.47554C5.5221 1.58806 5.45889 1.74067 5.45889 1.8998V5.39981H1.95889C1.79976 5.39981 1.64714 5.46302 1.53462 5.57554C1.4221 5.68806 1.35889 5.84067 1.35889 5.9998C1.35889 6.15893 1.4221 6.31155 1.53462 6.42407C1.64714 6.53659 1.79976 6.5998 1.95889 6.5998H5.45889V10.0998C5.45889 10.2589 5.5221 10.4115 5.63462 10.5241C5.74714 10.6366 5.89976 10.6998 6.05889 10.6998C6.21802 10.6998 6.37063 10.6366 6.48315 10.5241C6.59567 10.4115 6.65889 10.2589 6.65889 10.0998V6.5998H10.1589C10.318 6.5998 10.4706 6.53659 10.5832 6.42407C10.6957 6.31155 10.7589 6.15893 10.7589 5.9998C10.7589 5.84067 10.6957 5.68806 10.5832 5.57554C10.4706 5.46302 10.318 5.39981 10.1589 5.39981Z"
          fill="#7D8A9F"/>
</svg>
