<svg width="210" height="172" viewBox="0 0 210 172" fill="none" xmlns="http://www.w3.org/2000/svg">
    <g clip-path="url(#clip0_1_1758)">
        <g filter="url(#filter0_iii_1_1758)">
            <path d="M150.594 6.62123C144.455 0.433651 135.187 -1.63103 126.984 1.36179C125.183 2.01938 124.252 4.02322 124.903 5.83807C125.554 7.65292 127.542 8.59271 129.344 7.93512C135.029 5.86137 141.446 7.28529 145.691 11.5648C148.615 14.5123 150.225 18.4501 150.225 22.6533C150.225 26.8564 148.614 30.7942 145.691 33.7417L124.595 55.0034C123.309 56.2992 121.6 57.0124 119.781 57.0124C117.962 57.0124 116.253 56.2992 114.967 55.0034L107.357 47.3337C107.357 47.3337 107.356 47.3324 107.355 47.3311C107.353 47.3298 107.353 47.3298 107.352 47.3285L93.8712 33.7417C90.9466 30.7955 89.3373 26.8577 89.3373 22.6533C89.3373 18.8346 90.6667 15.2359 93.1018 12.3998L93.9303 11.5648C96.8471 8.62507 100.743 7.0031 104.903 6.99533C109.063 7.0031 112.958 8.62507 115.876 11.5661L116.704 12.3998C119.139 15.2359 120.468 18.8359 120.468 22.6546C120.468 26.8577 118.857 30.7955 115.934 33.743L109.717 40.0095C108.363 41.3739 108.363 43.5875 109.717 44.9518C110.393 45.634 111.281 45.9758 112.168 45.9758C113.056 45.9758 113.943 45.634 114.62 44.9518L120.838 38.6853C125.073 34.4187 127.404 28.7243 127.404 22.6546C127.404 17.6411 125.812 12.8865 122.874 8.97846C122.712 8.65743 122.499 8.35582 122.232 8.08657L121.756 7.60762C121.461 7.27235 121.155 6.94355 120.838 6.62382C116.605 2.35335 110.956 0.00259174 104.932 0.00259174C104.922 0.00259174 104.913 0.00259174 104.903 0.00259174C104.892 0.00259174 104.883 0.00259174 104.873 0.00259174C98.8494 0.00259174 93.2007 2.35335 88.9674 6.61993C88.6502 6.93967 88.3458 7.26846 88.0491 7.60373L87.5726 8.08398C87.3054 8.35323 87.0922 8.65484 86.9304 8.97587C83.9917 12.8839 82.4004 17.6385 82.4004 22.652C82.4004 28.723 84.7315 34.4161 88.9661 38.6827L99.9964 49.7996L94.8358 55.0008C93.5501 56.2966 91.8406 57.0099 90.0219 57.0099C88.2032 57.0099 86.4937 56.2966 85.208 55.0008L64.1121 33.7391C61.1876 30.7929 59.5783 26.8551 59.5783 22.6507C59.5783 18.4462 61.1889 14.5097 64.1121 11.5622C68.5304 7.10795 75.1539 5.76429 80.985 8.13576C82.7613 8.85808 84.7816 7.99337 85.4983 6.20311C86.215 4.41286 85.357 2.37665 83.5807 1.65434C79.5388 0.00906411 75.1257 -0.419406 70.823 0.415528C66.4035 1.27376 62.3885 3.4187 59.2122 6.62123C54.9789 10.8878 52.6465 16.5809 52.6465 22.652C52.6465 28.723 54.9789 34.4161 59.2122 38.6827L80.3081 59.9431C82.9039 62.5593 86.355 64 90.0257 64C93.6965 64 97.1476 62.5593 99.7434 59.9431L104.904 54.7419L110.065 59.9431C112.66 62.5593 116.111 64 119.782 64C123.453 64 126.904 62.5593 129.5 59.9431L150.596 38.6827C154.829 34.4161 157.162 28.7218 157.162 22.652C157.162 16.5822 154.83 10.8878 150.596 6.62123H150.594Z"
                  fill="#1C1E22"/>
        </g>
    </g>
    <path d="M201.642 115.858C200.635 115.858 199.675 115.638 198.762 115.198C197.881 114.726 197.158 114.002 196.591 113.027C196.056 112.051 195.789 110.808 195.789 109.298C195.789 108.48 195.868 107.41 196.025 106.088C196.182 104.767 196.387 103.32 196.639 101.746C196.922 100.173 197.205 98.5998 197.488 97.0265C196.859 97.058 196.245 97.1209 195.647 97.2153C195.081 97.3097 194.515 97.4199 193.948 97.5457L193.854 97.2153C194.483 96.4602 195.144 95.8151 195.836 95.2802C196.528 94.7453 197.252 94.3048 198.007 93.9587C198.416 91.882 198.762 90.0885 199.046 88.5782C199.329 87.0364 199.47 86.1239 199.47 85.8407C199.47 85.3058 199.879 84.8653 200.698 84.5192C201.547 84.1731 202.491 84 203.529 84C204.442 84 205.291 84.1731 206.078 84.5192C206.896 84.8653 207.447 85.4474 207.73 86.2655C207.541 86.4543 207.274 87.1622 206.928 88.3894C206.582 89.5851 206.22 91.0482 205.842 92.7788C206.44 92.8102 207.054 92.8417 207.683 92.8732C208.312 92.9046 208.957 92.9518 209.618 93.0147C209.681 93.2035 209.728 93.4081 209.76 93.6283C209.791 93.8486 209.807 94.0846 209.807 94.3363C209.807 94.8083 209.728 95.3274 209.571 95.8938C209.445 96.4287 209.288 96.9164 209.099 97.3569C208.344 97.294 207.636 97.2311 206.975 97.1681C206.314 97.0737 205.669 97.0108 205.04 96.9793C204.788 98.3323 204.552 99.6853 204.332 101.038C204.143 102.391 203.986 103.618 203.86 104.72C203.765 105.821 203.718 106.686 203.718 107.316C203.718 108.637 203.954 109.518 204.426 109.959C204.93 110.399 205.527 110.619 206.22 110.619C206.849 110.619 207.415 110.494 207.919 110.242C208.422 109.99 208.784 109.691 209.004 109.345L209.476 109.487C209.288 110.777 208.784 111.91 207.966 112.885C207.148 113.829 206.172 114.568 205.04 115.103C203.907 115.607 202.774 115.858 201.642 115.858Z"
          fill="white"/>
    <path d="M180.243 116C177.946 116 176.043 115.544 174.533 114.631C173.022 113.688 171.889 112.46 171.134 110.95C170.379 109.408 170.002 107.756 170.002 105.994C170.002 104.327 170.316 102.659 170.946 100.991C171.606 99.2923 172.55 97.7505 173.777 96.366C175.036 94.9815 176.546 93.8645 178.308 93.015C180.102 92.1654 182.116 91.7406 184.35 91.7406C187.119 91.7406 189.132 92.3699 190.391 93.6285C191.681 94.8557 192.326 96.3503 192.326 98.1123C192.326 99.6226 191.917 101.023 191.099 102.313C190.312 103.572 189.258 104.594 187.937 105.381C186.615 106.136 185.168 106.513 183.594 106.513C182.776 106.513 181.943 106.388 181.093 106.136C180.243 105.884 179.41 105.491 178.592 104.956C178.749 106.907 179.315 108.323 180.291 109.204C181.266 110.085 182.43 110.525 183.783 110.525C184.727 110.525 185.671 110.352 186.615 110.006C187.559 109.629 188.424 109.157 189.211 108.59C190.029 107.992 190.658 107.363 191.099 106.702L191.429 106.938C191.429 108.574 191.083 109.975 190.391 111.139C189.73 112.272 188.849 113.2 187.748 113.924C186.647 114.647 185.435 115.182 184.114 115.528C182.824 115.843 181.534 116 180.243 116ZM181.329 103.257C182.336 103.257 183.154 102.974 183.783 102.407C184.413 101.809 184.885 101.117 185.199 100.331C185.514 99.544 185.671 98.8517 185.671 98.2539C185.671 97.5302 185.467 96.9324 185.058 96.4604C184.649 95.957 184.082 95.7052 183.358 95.7052C182.792 95.7052 182.163 95.9098 181.471 96.3188C180.81 96.7278 180.212 97.4358 179.677 98.4427C179.142 99.4181 178.796 100.787 178.639 102.549C179.646 103.021 180.542 103.257 181.329 103.257Z"
          fill="white"/>
    <path d="M155.63 116C153.333 116 151.43 115.544 149.919 114.631C148.409 113.688 147.276 112.46 146.521 110.95C145.766 109.408 145.388 107.756 145.388 105.994C145.388 104.327 145.703 102.659 146.332 100.991C146.993 99.2923 147.937 97.7505 149.164 96.366C150.423 94.9815 151.933 93.8645 153.695 93.015C155.489 92.1654 157.502 91.7406 159.736 91.7406C162.505 91.7406 164.519 92.3699 165.778 93.6285C167.068 94.8557 167.713 96.3503 167.713 98.1123C167.713 99.6226 167.304 101.023 166.486 102.313C165.699 103.572 164.645 104.594 163.323 105.381C162.002 106.136 160.554 106.513 158.981 106.513C158.163 106.513 157.329 106.388 156.48 106.136C155.63 105.884 154.796 105.491 153.978 104.956C154.136 106.907 154.702 108.323 155.677 109.204C156.653 110.085 157.817 110.525 159.17 110.525C160.114 110.525 161.058 110.352 162.002 110.006C162.946 109.629 163.811 109.157 164.598 108.59C165.416 107.992 166.045 107.363 166.486 106.702L166.816 106.938C166.816 108.574 166.47 109.975 165.778 111.139C165.117 112.272 164.236 113.2 163.135 113.924C162.033 114.647 160.822 115.182 159.5 115.528C158.21 115.843 156.92 116 155.63 116ZM156.716 103.257C157.723 103.257 158.541 102.974 159.17 102.407C159.799 101.809 160.271 101.117 160.586 100.331C160.901 99.544 161.058 98.8517 161.058 98.2539C161.058 97.5302 160.853 96.9324 160.444 96.4604C160.035 95.957 159.469 95.7052 158.745 95.7052C158.179 95.7052 157.55 95.9098 156.857 96.3188C156.197 96.7278 155.599 97.4358 155.064 98.4427C154.529 99.4181 154.183 100.787 154.025 102.549C155.032 103.021 155.929 103.257 156.716 103.257Z"
          fill="white"/>
    <path d="M111.264 115.858C110.132 115.858 109.109 115.402 108.196 114.49C107.315 113.546 106.875 112.256 106.875 110.619C106.875 109.801 106.985 108.873 107.205 107.835C107.426 106.765 107.662 105.679 107.913 104.578C108.196 103.477 108.448 102.439 108.668 101.463C108.889 100.488 108.999 99.6696 108.999 99.0089C108.999 98.474 108.873 98.0492 108.621 97.7345C108.369 97.3884 108.039 97.2153 107.63 97.2153C107.095 97.2153 106.513 97.53 105.884 98.1593L105.601 97.9705C105.569 97.4671 105.679 96.8692 105.931 96.177C106.183 95.4848 106.592 94.824 107.158 94.1947C107.724 93.5339 108.464 92.9833 109.376 92.5428C110.289 92.1023 111.374 91.882 112.633 91.882C114.049 91.882 115.103 92.3855 115.795 93.3923C116.519 94.3678 116.881 95.5477 116.881 96.9322C116.881 97.0895 116.881 97.2625 116.881 97.4513C116.881 97.6087 116.865 97.766 116.834 97.9233C117.431 96.9479 118.124 96.0039 118.91 95.0915C119.728 94.179 120.641 93.4238 121.648 92.826C122.686 92.1967 123.803 91.882 124.999 91.882C126.541 91.882 127.61 92.3855 128.208 93.3923C128.806 94.3678 129.105 95.4848 129.105 96.7434C129.105 96.9951 129.089 97.2468 129.058 97.4985C129.058 97.7188 129.042 97.939 129.011 98.1593C129.671 97.1839 130.395 96.2242 131.182 95.2802C132 94.3048 132.928 93.5025 133.966 92.8732C135.005 92.2124 136.2 91.882 137.553 91.882C139.221 91.882 140.354 92.3697 140.952 93.3451C141.581 94.3206 141.896 95.469 141.896 96.7906C141.896 97.9548 141.754 99.292 141.471 100.802C141.188 102.281 140.904 103.744 140.621 105.192C140.338 106.639 140.196 107.866 140.196 108.873C140.196 109.471 140.275 109.959 140.432 110.336C140.621 110.714 140.92 110.903 141.329 110.903C141.675 110.903 141.99 110.808 142.273 110.619C142.588 110.399 142.808 110.147 142.934 109.864L143.311 110.006C143.311 111.17 142.981 112.193 142.32 113.074C141.66 113.955 140.826 114.647 139.819 115.15C138.812 115.622 137.805 115.858 136.798 115.858C135.571 115.858 134.485 115.449 133.542 114.631C132.629 113.813 132.173 112.46 132.173 110.572C132.173 109.408 132.314 108.149 132.598 106.796C132.912 105.443 133.211 104.138 133.494 102.879C133.809 101.589 133.966 100.535 133.966 99.7168C133.966 98.5526 133.557 97.9705 132.739 97.9705C132.141 97.9705 131.544 98.2222 130.946 98.7257C130.379 99.1976 129.86 99.8427 129.388 100.661C128.948 101.447 128.586 102.281 128.303 103.162C128.019 104.043 127.878 104.893 127.878 105.711C127.878 106.466 127.956 107.3 128.114 108.212C128.303 109.093 128.397 109.943 128.397 110.761C128.397 112.397 127.941 113.656 127.028 114.537C126.116 115.418 125.046 115.858 123.819 115.858C122.686 115.858 121.663 115.481 120.751 114.726C119.87 113.971 119.429 112.838 119.429 111.327C119.429 110.635 119.524 109.801 119.713 108.826C119.901 107.819 120.106 106.781 120.326 105.711C120.578 104.61 120.798 103.556 120.987 102.549C121.176 101.542 121.27 100.661 121.27 99.9056C121.27 99.3078 121.176 98.8358 120.987 98.4897C120.83 98.1436 120.499 97.9705 119.996 97.9705C119.272 97.9705 118.58 98.3324 117.919 99.0561C117.258 99.7798 116.692 100.661 116.22 101.699C115.748 102.706 115.433 103.681 115.276 104.625C115.245 104.846 115.213 105.019 115.182 105.145C115.182 105.27 115.182 105.333 115.182 105.333C115.182 106.309 115.292 107.206 115.512 108.024C115.732 108.81 115.842 109.628 115.842 110.478C115.842 112.02 115.37 113.31 114.427 114.348C113.514 115.355 112.46 115.858 111.264 115.858Z"
          fill="white"/>
    <path d="M96.0454 115.858C95.0385 115.858 94.0789 115.638 93.1664 115.198C92.2853 114.726 91.5616 114.002 90.9953 113.027C90.4604 112.051 90.1929 110.808 90.1929 109.298C90.1929 108.48 90.2716 107.41 90.4289 106.088C90.5862 104.767 90.7908 103.32 91.0425 101.746C91.3257 100.173 91.6088 98.5998 91.892 97.0265C91.2627 97.058 90.6492 97.1209 90.0513 97.2153C89.485 97.3097 88.9186 97.4199 88.3522 97.5457L88.2578 97.2153C88.8871 96.4602 89.5479 95.8151 90.2401 95.2802C90.9323 94.7453 91.656 94.3048 92.4112 93.9587C92.8202 91.882 93.1664 90.0885 93.4496 88.5782C93.7327 87.0364 93.8743 86.1239 93.8743 85.8407C93.8743 85.3058 94.2834 84.8653 95.1015 84.5192C95.951 84.1731 96.895 84 97.9333 84C98.8458 84 99.6954 84.1731 100.482 84.5192C101.3 84.8653 101.851 85.4474 102.134 86.2655C101.945 86.4543 101.678 87.1622 101.332 88.3894C100.985 89.5851 100.624 91.0482 100.246 92.7788C100.844 92.8102 101.457 92.8417 102.087 92.8732C102.716 92.9046 103.361 92.9518 104.022 93.0147C104.085 93.2035 104.132 93.4081 104.163 93.6283C104.195 93.8486 104.211 94.0846 104.211 94.3363C104.211 94.8083 104.132 95.3274 103.975 95.8938C103.849 96.4287 103.691 96.9164 103.503 97.3569C102.747 97.294 102.04 97.2311 101.379 97.1681C100.718 97.0737 100.073 97.0108 99.4437 96.9793C99.1919 98.3323 98.9559 99.6853 98.7357 101.038C98.5469 102.391 98.3896 103.618 98.2637 104.72C98.1693 105.821 98.1221 106.686 98.1221 107.316C98.1221 108.637 98.3581 109.518 98.8301 109.959C99.3335 110.399 99.9314 110.619 100.624 110.619C101.253 110.619 101.819 110.494 102.323 110.242C102.826 109.99 103.188 109.691 103.408 109.345L103.88 109.487C103.691 110.777 103.188 111.91 102.37 112.885C101.552 113.829 100.576 114.568 99.4437 115.103C98.3109 115.607 97.1782 115.858 96.0454 115.858Z"
          fill="white"/>
    <path d="M74.6481 116C72.3512 116 70.4475 115.544 68.9372 114.631C67.4269 113.688 66.2942 112.46 65.539 110.95C64.7838 109.408 64.4062 107.756 64.4062 105.994C64.4062 104.327 64.7209 102.659 65.3502 100.991C66.011 99.2923 66.9549 97.7505 68.1821 96.366C69.4407 94.9815 70.951 93.8645 72.713 93.015C74.5065 92.1654 76.5203 91.7406 78.7543 91.7406C81.5232 91.7406 83.537 92.3699 84.7956 93.6285C86.0857 94.8557 86.7307 96.3503 86.7307 98.1123C86.7307 99.6226 86.3217 101.023 85.5036 102.313C84.717 103.572 83.6629 104.594 82.3413 105.381C81.0198 106.136 79.5724 106.513 77.9992 106.513C77.1811 106.513 76.3472 106.388 75.4977 106.136C74.6481 105.884 73.8143 105.491 72.9962 104.956C73.1535 106.907 73.7199 108.323 74.6953 109.204C75.6707 110.085 76.835 110.525 78.188 110.525C79.1319 110.525 80.0759 110.352 81.0198 110.006C81.9638 109.629 82.8291 109.157 83.6157 108.59C84.4338 107.992 85.0631 107.363 85.5036 106.702L85.834 106.938C85.834 108.574 85.4879 109.975 84.7956 111.139C84.1349 112.272 83.2538 113.2 82.1525 113.924C81.0513 114.647 79.8399 115.182 78.5183 115.528C77.2283 115.843 75.9382 116 74.6481 116ZM75.7337 103.257C76.7406 103.257 77.5587 102.974 78.188 102.407C78.8173 101.809 79.2892 101.117 79.6039 100.331C79.9185 99.544 80.0759 98.8517 80.0759 98.2539C80.0759 97.5302 79.8713 96.9324 79.4623 96.4604C79.0532 95.957 78.4869 95.7052 77.7632 95.7052C77.1968 95.7052 76.5675 95.9098 75.8753 96.3188C75.2145 96.7278 74.6167 97.4358 74.0818 98.4427C73.5469 99.4181 73.2007 100.787 73.0434 102.549C74.0503 103.021 74.9471 103.257 75.7337 103.257Z"
          fill="white"/>
    <path d="M50.0349 116C47.7379 116 45.8343 115.544 44.3239 114.631C42.8136 113.688 41.6809 112.46 40.9257 110.95C40.1705 109.408 39.793 107.756 39.793 105.994C39.793 104.327 40.1076 102.659 40.7369 100.991C41.3977 99.2923 42.3416 97.7505 43.5688 96.366C44.8274 94.9815 46.3377 93.8645 48.0997 93.015C49.8933 92.1654 51.907 91.7406 54.141 91.7406C56.91 91.7406 58.9237 92.3699 60.1823 93.6285C61.4724 94.8557 62.1174 96.3503 62.1174 98.1123C62.1174 99.6226 61.7084 101.023 60.8903 102.313C60.1037 103.572 59.0496 104.594 57.7281 105.381C56.4065 106.136 54.9591 106.513 53.3859 106.513C52.5678 106.513 51.734 106.388 50.8844 106.136C50.0349 105.884 49.201 105.491 48.3829 104.956C48.5403 106.907 49.1066 108.323 50.082 109.204C51.0575 110.085 52.2217 110.525 53.5747 110.525C54.5186 110.525 55.4626 110.352 56.4065 110.006C57.3505 109.629 58.2158 109.157 59.0024 108.59C59.8205 107.992 60.4498 107.363 60.8903 106.702L61.2207 106.938C61.2207 108.574 60.8746 109.975 60.1823 111.139C59.5216 112.272 58.6405 113.2 57.5393 113.924C56.438 114.647 55.2266 115.182 53.9051 115.528C52.615 115.843 51.3249 116 50.0349 116ZM51.1204 103.257C52.1273 103.257 52.9454 102.974 53.5747 102.407C54.204 101.809 54.6759 101.117 54.9906 100.331C55.3053 99.544 55.4626 98.8517 55.4626 98.2539C55.4626 97.5302 55.2581 96.9324 54.849 96.4604C54.44 95.957 53.8736 95.7052 53.1499 95.7052C52.5835 95.7052 51.9542 95.9098 51.262 96.3188C50.6012 96.7278 50.0034 97.4358 49.4685 98.4427C48.9336 99.4181 48.5875 100.787 48.4301 102.549C49.437 103.021 50.3338 103.257 51.1204 103.257Z"
          fill="white"/>
    <path d="M5.66896 115.858C4.53622 115.858 3.5136 115.402 2.60111 114.49C1.72009 113.546 1.27958 112.256 1.27958 110.619C1.27958 109.801 1.38971 108.873 1.60996 107.835C1.83022 106.765 2.06621 105.679 2.31793 104.578C2.60111 103.477 2.85283 102.439 3.07309 101.463C3.29335 100.488 3.40347 99.6696 3.40347 99.0089C3.40347 98.474 3.27761 98.0492 3.02589 97.7345C2.77417 97.3884 2.44379 97.2153 2.03474 97.2153C1.49984 97.2153 0.917732 97.53 0.28843 98.1593L0.00524417 97.9705C-0.0262209 97.4671 0.0839072 96.8692 0.335628 96.177C0.587348 95.4848 0.996395 94.824 1.56277 94.1947C2.12914 93.5339 2.86857 92.9833 3.78105 92.5428C4.69354 92.1023 5.77909 91.882 7.03769 91.882C8.45362 91.882 9.5077 92.3855 10.1999 93.3923C10.9236 94.3678 11.2855 95.5477 11.2855 96.9322C11.2855 97.0895 11.2855 97.2625 11.2855 97.4513C11.2855 97.6087 11.2697 97.766 11.2383 97.9233C11.8361 96.9479 12.5283 96.0039 13.315 95.0915C14.1331 94.179 15.0456 93.4238 16.0524 92.826C17.0908 92.1967 18.2078 91.882 19.4035 91.882C20.9453 91.882 22.0151 92.3855 22.6129 93.3923C23.2107 94.3678 23.5097 95.4848 23.5097 96.7434C23.5097 96.9951 23.4939 97.2468 23.4625 97.4985C23.4625 97.7188 23.4467 97.939 23.4153 98.1593C24.076 97.1839 24.7997 96.2242 25.5864 95.2802C26.4044 94.3048 27.3327 93.5025 28.371 92.8732C29.4094 92.2124 30.605 91.882 31.958 91.882C33.6257 91.882 34.7584 92.3697 35.3563 93.3451C35.9856 94.3206 36.3002 95.469 36.3002 96.7906C36.3002 97.9548 36.1586 99.292 35.8754 100.802C35.5923 102.281 35.3091 103.744 35.0259 105.192C34.7427 106.639 34.6011 107.866 34.6011 108.873C34.6011 109.471 34.6798 109.959 34.8371 110.336C35.0259 110.714 35.3248 110.903 35.7338 110.903C36.08 110.903 36.3946 110.808 36.6778 110.619C36.9924 110.399 37.2127 110.147 37.3386 109.864L37.7161 110.006C37.7161 111.17 37.3858 112.193 36.725 113.074C36.0642 113.955 35.2304 114.647 34.2235 115.15C33.2166 115.622 32.2098 115.858 31.2029 115.858C29.9757 115.858 28.8902 115.449 27.9462 114.631C27.0337 113.813 26.5775 112.46 26.5775 110.572C26.5775 109.408 26.7191 108.149 27.0023 106.796C27.3169 105.443 27.6159 104.138 27.899 102.879C28.2137 101.589 28.371 100.535 28.371 99.7168C28.371 98.5526 27.962 97.9705 27.1439 97.9705C26.546 97.9705 25.9482 98.2222 25.3504 98.7257C24.784 99.1976 24.2648 99.8427 23.7928 100.661C23.3523 101.447 22.9905 102.281 22.7073 103.162C22.4241 104.043 22.2825 104.893 22.2825 105.711C22.2825 106.466 22.3612 107.3 22.5185 108.212C22.7073 109.093 22.8017 109.943 22.8017 110.761C22.8017 112.397 22.3455 113.656 21.433 114.537C20.5205 115.418 19.4507 115.858 18.2235 115.858C17.0908 115.858 16.0682 115.481 15.1557 114.726C14.2747 113.971 13.8341 112.838 13.8341 111.327C13.8341 110.635 13.9285 109.801 14.1173 108.826C14.3061 107.819 14.5106 106.781 14.7309 105.711C14.9826 104.61 15.2029 103.556 15.3917 102.549C15.5805 101.542 15.6749 100.661 15.6749 99.9056C15.6749 99.3078 15.5805 98.8358 15.3917 98.4897C15.2343 98.1436 14.904 97.9705 14.4005 97.9705C13.6768 97.9705 12.9846 98.3324 12.3238 99.0561C11.6631 99.7798 11.0967 100.661 10.6247 101.699C10.1527 102.706 9.83808 103.681 9.68076 104.625C9.64929 104.846 9.61783 105.019 9.58636 105.145C9.58636 105.27 9.58636 105.333 9.58636 105.333C9.58636 106.309 9.69649 107.206 9.91675 108.024C10.137 108.81 10.2471 109.628 10.2471 110.478C10.2471 112.02 9.77515 113.31 8.8312 114.348C7.91871 115.355 6.86463 115.858 5.66896 115.858Z"
          fill="white"/>
    <defs>
        <filter id="filter0_iii_1_1758" x="48.552" y="-15.3542" width="113.728" height="79.3542"
                filterUnits="userSpaceOnUse" color-interpolation-filters="sRGB">
            <feFlood flood-opacity="0" result="BackgroundImageFix"/>
            <feBlend mode="normal" in="SourceGraphic" in2="BackgroundImageFix" result="shape"/>
            <feColorMatrix in="SourceAlpha" type="matrix" values="0 0 0 0 0 0 0 0 0 0 0 0 0 0 0 0 0 0 127 0"
                           result="hardAlpha"/>
            <feOffset dx="-4.09445" dy="-33.7792"/>
            <feGaussianBlur stdDeviation="7.67709"/>
            <feComposite in2="hardAlpha" operator="arithmetic" k2="-1" k3="1"/>
            <feColorMatrix type="matrix" values="0 0 0 0 0 0 0 0 0 0 0 0 0 0 0 0 0 0 0.2 0"/>
            <feBlend mode="normal" in2="shape" result="effect1_innerShadow_1_1758"/>
            <feColorMatrix in="SourceAlpha" type="matrix" values="0 0 0 0 0 0 0 0 0 0 0 0 0 0 0 0 0 0 127 0"
                           result="hardAlpha"/>
            <feOffset dx="7.16528" dy="-7.16528"/>
            <feGaussianBlur stdDeviation="2.55903"/>
            <feComposite in2="hardAlpha" operator="arithmetic" k2="-1" k3="1"/>
            <feColorMatrix type="matrix" values="0 0 0 0 1 0 0 0 0 1 0 0 0 0 1 0 0 0 0.45 0"/>
            <feBlend mode="normal" in2="effect1_innerShadow_1_1758" result="effect2_innerShadow_1_1758"/>
            <feColorMatrix in="SourceAlpha" type="matrix" values="0 0 0 0 0 0 0 0 0 0 0 0 0 0 0 0 0 0 127 0"
                           result="hardAlpha"/>
            <feOffset dx="-20" dy="-98"/>
            <feGaussianBlur stdDeviation="6"/>
            <feComposite in2="hardAlpha" operator="arithmetic" k2="-1" k3="1"/>
            <feColorMatrix type="matrix" values="0 0 0 0 0.995608 0 0 0 0 0.975877 0 0 0 0 0.987058 0 0 0 1 0"/>
            <feBlend mode="normal" in2="effect2_innerShadow_1_1758" result="effect3_innerShadow_1_1758"/>
        </filter>
        <clipPath id="clip0_1_1758">
            <rect width="104.514" height="64" fill="white" transform="translate(52.6465)"/>
        </clipPath>
    </defs>
</svg>
