<svg width="263" height="68" viewBox="0 0 263 68" fill="none" xmlns="http://www.w3.org/2000/svg">
<path d="M252.052 39.823C250.793 39.823 249.593 39.5477 248.453 38.997C247.351 38.4071 246.447 37.5024 245.739 36.2832C245.07 35.0639 244.736 33.5103 244.736 31.6224C244.736 30.5998 244.834 29.2625 245.031 27.6106C245.228 25.9587 245.483 24.1494 245.798 22.1829C246.152 20.2163 246.506 18.2497 246.86 16.2832C246.073 16.3225 245.306 16.4012 244.559 16.5192C243.851 16.6372 243.143 16.7748 242.435 16.9321L242.317 16.5192C243.104 15.5752 243.93 14.7689 244.795 14.1003C245.66 13.4317 246.565 12.881 247.509 12.4484C248.02 9.8525 248.453 7.61062 248.807 5.72271C249.161 3.79547 249.338 2.65486 249.338 2.30088C249.338 1.63225 249.849 1.08161 250.872 0.648966C251.934 0.216322 253.113 0 254.411 0C255.552 0 256.614 0.216322 257.597 0.648966C258.62 1.08161 259.308 1.80924 259.662 2.83186C259.426 3.06784 259.092 3.9528 258.659 5.48672C258.227 6.98131 257.774 8.81022 257.302 10.9734C258.05 11.0128 258.817 11.0521 259.603 11.0914C260.39 11.1308 261.196 11.1898 262.022 11.2684C262.101 11.5044 262.16 11.7601 262.199 12.0354C262.238 12.3107 262.258 12.6057 262.258 12.9203C262.258 13.5103 262.16 14.1593 261.963 14.8672C261.806 15.5359 261.609 16.1455 261.373 16.6962C260.429 16.6175 259.544 16.5388 258.718 16.4602C257.892 16.3422 257.086 16.2635 256.299 16.2242C255.985 17.9154 255.69 19.6067 255.414 21.2979C255.178 22.9892 254.982 24.5231 254.824 25.8997C254.706 27.2763 254.647 28.3579 254.647 29.1445C254.647 30.7964 254.942 31.8977 255.532 32.4484C256.162 32.999 256.909 33.2743 257.774 33.2743C258.561 33.2743 259.269 33.117 259.898 32.8023C260.527 32.4877 260.98 32.114 261.255 31.6814L261.845 31.8584C261.609 33.471 260.98 34.8869 259.957 36.1062C258.935 37.2861 257.715 38.2104 256.299 38.879C254.883 39.5083 253.467 39.823 252.052 39.823Z" fill="white"/>
<path d="M225.304 40.0001C222.433 40.0001 220.054 39.4298 218.166 38.2892C216.278 37.1092 214.862 35.5753 213.918 33.6874C212.974 31.7602 212.502 29.6953 212.502 27.4927C212.502 25.4081 212.895 23.3236 213.682 21.239C214.508 19.1151 215.688 17.1879 217.222 15.4573C218.795 13.7267 220.683 12.3305 222.885 11.2685C225.127 10.2066 227.645 9.6756 230.437 9.6756C233.898 9.6756 236.415 10.4622 237.989 12.0355C239.601 13.5694 240.408 15.4376 240.408 17.6402C240.408 19.5281 239.896 21.2783 238.874 22.8909C237.89 24.4642 236.573 25.7425 234.921 26.7257C233.269 27.6697 231.46 28.1417 229.493 28.1417C228.47 28.1417 227.428 27.9843 226.366 27.6697C225.304 27.355 224.262 26.8634 223.239 26.1948C223.436 28.6333 224.144 30.4032 225.363 31.5045C226.583 32.6058 228.038 33.1564 229.729 33.1564C230.909 33.1564 232.089 32.9401 233.269 32.5074C234.449 32.0355 235.53 31.4455 236.514 30.7375C237.536 29.9902 238.323 29.2036 238.874 28.3777L239.287 28.6726C239.287 30.7179 238.854 32.4681 237.989 33.9234C237.163 35.3393 236.061 36.4996 234.685 37.4042C233.308 38.3088 231.794 38.9775 230.142 39.4101C228.529 39.8034 226.917 40.0001 225.304 40.0001ZM226.661 24.0709C227.92 24.0709 228.942 23.7169 229.729 23.0089C230.516 22.2616 231.106 21.3963 231.499 20.4131C231.892 19.4298 232.089 18.5645 232.089 17.8172C232.089 16.9126 231.833 16.1653 231.322 15.5753C230.811 14.946 230.103 14.6313 229.198 14.6313C228.49 14.6313 227.704 14.887 226.838 15.3983C226.012 15.9096 225.265 16.7946 224.596 18.0532C223.928 19.2724 223.495 20.9834 223.298 23.1859C224.557 23.7759 225.678 24.0709 226.661 24.0709Z" fill="white"/>
<path d="M194.538 40.0001C191.667 40.0001 189.287 39.4298 187.399 38.2892C185.512 37.1092 184.096 35.5753 183.152 33.6874C182.208 31.7602 181.736 29.6953 181.736 27.4927C181.736 25.4081 182.129 23.3236 182.916 21.239C183.742 19.1151 184.922 17.1879 186.455 15.4573C188.029 13.7267 189.917 12.3305 192.119 11.2685C194.361 10.2066 196.878 9.6756 199.671 9.6756C203.132 9.6756 205.649 10.4622 207.222 12.0355C208.835 13.5694 209.641 15.4376 209.641 17.6402C209.641 19.5281 209.13 21.2783 208.107 22.8909C207.124 24.4642 205.807 25.7425 204.155 26.7257C202.503 27.6697 200.693 28.1417 198.727 28.1417C197.704 28.1417 196.662 27.9843 195.6 27.6697C194.538 27.355 193.496 26.8634 192.473 26.1948C192.67 28.6333 193.378 30.4032 194.597 31.5045C195.816 32.6058 197.272 33.1564 198.963 33.1564C200.143 33.1564 201.323 32.9401 202.503 32.5074C203.683 32.0355 204.764 31.4455 205.748 30.7375C206.77 29.9902 207.557 29.2036 208.107 28.3777L208.52 28.6726C208.52 30.7179 208.088 32.4681 207.222 33.9234C206.396 35.3393 205.295 36.4996 203.919 37.4042C202.542 38.3088 201.028 38.9775 199.376 39.4101C197.763 39.8034 196.151 40.0001 194.538 40.0001ZM195.895 24.0709C197.154 24.0709 198.176 23.7169 198.963 23.0089C199.749 22.2616 200.339 21.3963 200.733 20.4131C201.126 19.4298 201.323 18.5645 201.323 17.8172C201.323 16.9126 201.067 16.1653 200.556 15.5753C200.044 14.946 199.337 14.6313 198.432 14.6313C197.724 14.6313 196.937 14.887 196.072 15.3983C195.246 15.9096 194.499 16.7946 193.83 18.0532C193.161 19.2724 192.729 20.9834 192.532 23.1859C193.791 23.7759 194.912 24.0709 195.895 24.0709Z" fill="white"/>
<path d="M139.081 39.823C137.665 39.823 136.386 39.2527 135.246 38.1121C134.144 36.9322 133.594 35.3196 133.594 33.2744C133.594 32.2517 133.732 31.0915 134.007 29.7935C134.282 28.4563 134.577 27.0993 134.892 25.7227C135.246 24.3461 135.56 23.0482 135.836 21.8289C136.111 20.6097 136.249 19.587 136.249 18.7611C136.249 18.0925 136.091 17.5615 135.777 17.1682C135.462 16.7355 135.049 16.5192 134.538 16.5192C133.869 16.5192 133.142 16.9125 132.355 17.6991L132.001 17.4632C131.962 16.8339 132.099 16.0866 132.414 15.2213C132.729 14.356 133.24 13.53 133.948 12.7434C134.656 11.9174 135.58 11.2291 136.721 10.6785C137.861 10.1279 139.218 9.85254 140.792 9.85254C142.561 9.85254 143.879 10.4818 144.744 11.7404C145.649 12.9597 146.101 14.4346 146.101 16.1652C146.101 16.3619 146.101 16.5782 146.101 16.8142C146.101 17.0108 146.082 17.2075 146.042 17.4042C146.79 16.1849 147.655 15.0049 148.638 13.8643C149.661 12.7237 150.801 11.7798 152.06 11.0325C153.358 10.2459 154.754 9.85254 156.249 9.85254C158.176 9.85254 159.513 10.4818 160.261 11.7404C161.008 12.9597 161.381 14.356 161.381 15.9292C161.381 16.2439 161.362 16.5585 161.322 16.8732C161.322 17.1485 161.303 17.4238 161.263 17.6991C162.089 16.4799 162.994 15.2803 163.977 14.1003C165 12.8811 166.16 11.8781 167.458 11.0915C168.756 10.2655 170.251 9.85254 171.942 9.85254C174.026 9.85254 175.442 10.4622 176.19 11.6814C176.976 12.9007 177.37 14.3363 177.37 15.9882C177.37 17.4435 177.193 19.1151 176.839 21.003C176.485 22.8516 176.131 24.6805 175.777 26.4897C175.423 28.2989 175.246 29.8329 175.246 31.0915C175.246 31.8388 175.344 32.4484 175.541 32.9204C175.777 33.3924 176.15 33.6283 176.662 33.6283C177.094 33.6283 177.488 33.5103 177.842 33.2744C178.235 32.999 178.51 32.6844 178.668 32.3304L179.14 32.5074C179.14 33.9627 178.727 35.2409 177.901 36.3422C177.075 37.4435 176.032 38.3088 174.774 38.9381C173.515 39.528 172.257 39.823 170.998 39.823C169.464 39.823 168.107 39.3117 166.927 38.2891C165.787 37.2665 165.216 35.5752 165.216 33.2154C165.216 31.7601 165.393 30.1868 165.747 28.4956C166.141 26.8044 166.514 25.1721 166.868 23.5988C167.261 21.9863 167.458 20.6687 167.458 19.646C167.458 18.1908 166.947 17.4632 165.924 17.4632C165.177 17.4632 164.43 17.7778 163.682 18.4071C162.974 18.9971 162.325 19.8034 161.735 20.826C161.185 21.8093 160.732 22.8516 160.379 23.9528C160.025 25.0541 159.848 26.1161 159.848 27.1387C159.848 28.0826 159.946 29.1249 160.143 30.2655C160.379 31.3668 160.497 32.4287 160.497 33.4513C160.497 35.4966 159.926 37.0698 158.786 38.1711C157.645 39.2724 156.308 39.823 154.774 39.823C153.358 39.823 152.08 39.3511 150.939 38.4071C149.838 37.4631 149.287 36.0472 149.287 34.1593C149.287 33.294 149.405 32.2517 149.641 31.0325C149.877 29.7739 150.133 28.4759 150.408 27.1387C150.723 25.7621 150.998 24.4445 151.234 23.1859C151.47 21.9273 151.588 20.826 151.588 19.882C151.588 19.1347 151.47 18.5448 151.234 18.1121C151.037 17.6795 150.624 17.4632 149.995 17.4632C149.09 17.4632 148.225 17.9155 147.399 18.8201C146.573 19.7247 145.865 20.826 145.275 22.1239C144.685 23.3825 144.292 24.6018 144.095 25.7817C144.056 26.0571 144.017 26.2734 143.977 26.4307C143.977 26.588 143.977 26.6667 143.977 26.6667C143.977 27.886 144.115 29.0069 144.39 30.0295C144.666 31.0128 144.803 32.0354 144.803 33.0974C144.803 35.0246 144.213 36.6372 143.033 37.9351C141.893 39.1937 140.575 39.823 139.081 39.823Z" fill="white"/>
<path d="M120.057 39.823C118.799 39.823 117.599 39.5477 116.458 38.997C115.357 38.4071 114.452 37.5024 113.744 36.2832C113.076 35.0639 112.742 33.5103 112.742 31.6224C112.742 30.5998 112.84 29.2625 113.036 27.6106C113.233 25.9587 113.489 24.1494 113.803 22.1829C114.157 20.2163 114.511 18.2497 114.865 16.2832C114.079 16.3225 113.312 16.4012 112.565 16.5192C111.857 16.6372 111.149 16.7748 110.441 16.9321L110.323 16.5192C111.109 15.5752 111.935 14.7689 112.801 14.1003C113.666 13.4317 114.57 12.881 115.514 12.4484C116.026 9.8525 116.458 7.61062 116.812 5.72271C117.166 3.79547 117.343 2.65486 117.343 2.30088C117.343 1.63225 117.855 1.08161 118.877 0.648966C119.939 0.216322 121.119 0 122.417 0C123.558 0 124.62 0.216322 125.603 0.648966C126.625 1.08161 127.314 1.80924 127.668 2.83186C127.432 3.06784 127.097 3.9528 126.665 5.48672C126.232 6.98131 125.78 8.81022 125.308 10.9734C126.055 11.0128 126.822 11.0521 127.609 11.0914C128.395 11.1308 129.202 11.1898 130.028 11.2684C130.106 11.5044 130.165 11.7601 130.205 12.0354C130.244 12.3107 130.264 12.6057 130.264 12.9203C130.264 13.5103 130.165 14.1593 129.969 14.8672C129.811 15.5359 129.615 16.1455 129.379 16.6962C128.435 16.6175 127.55 16.5388 126.724 16.4602C125.898 16.3422 125.092 16.2635 124.305 16.2242C123.99 17.9154 123.695 19.6067 123.42 21.2979C123.184 22.9892 122.987 24.5231 122.83 25.8997C122.712 27.2763 122.653 28.3579 122.653 29.1445C122.653 30.7964 122.948 31.8977 123.538 32.4484C124.167 32.999 124.915 33.2743 125.78 33.2743C126.566 33.2743 127.274 33.117 127.904 32.8023C128.533 32.4877 128.985 32.114 129.261 31.6814L129.851 31.8584C129.615 33.471 128.985 34.8869 127.963 36.1062C126.94 37.2861 125.721 38.2104 124.305 38.879C122.889 39.5083 121.473 39.823 120.057 39.823Z" fill="white"/>
<path d="M93.3099 40.0001C90.4387 40.0001 88.0592 39.4298 86.1713 38.2892C84.2834 37.1092 82.8674 35.5753 81.9235 33.6874C80.9795 31.7602 80.5076 29.6953 80.5076 27.4927C80.5076 25.4081 80.9009 23.3236 81.6875 21.239C82.5135 19.1151 83.6934 17.1879 85.2273 15.4573C86.8006 13.7267 88.6885 12.3305 90.891 11.2685C93.1329 10.2066 95.6501 9.6756 98.4427 9.6756C101.904 9.6756 104.421 10.4622 105.994 12.0355C107.607 13.5694 108.413 15.4376 108.413 17.6402C108.413 19.5281 107.902 21.2783 106.879 22.8909C105.896 24.4642 104.578 25.7425 102.926 26.7257C101.275 27.6697 99.4653 28.1417 97.4987 28.1417C96.4761 28.1417 95.4338 27.9843 94.3719 27.6697C93.3099 27.355 92.2676 26.8634 91.245 26.1948C91.4417 28.6333 92.1496 30.4032 93.3689 31.5045C94.5882 32.6058 96.0434 33.1564 97.7347 33.1564C98.9146 33.1564 100.095 32.9401 101.275 32.5074C102.454 32.0355 103.536 31.4455 104.519 30.7375C105.542 29.9902 106.329 29.2036 106.879 28.3777L107.292 28.6726C107.292 30.7179 106.86 32.4681 105.994 33.9234C105.168 35.3393 104.067 36.4996 102.69 37.4042C101.314 38.3088 99.7996 38.9775 98.1477 39.4101C96.5351 39.8034 94.9225 40.0001 93.3099 40.0001ZM94.6669 24.0709C95.9255 24.0709 96.9481 23.7169 97.7347 23.0089C98.5213 22.2616 99.1113 21.3963 99.5046 20.4131C99.8979 19.4298 100.095 18.5645 100.095 17.8172C100.095 16.9126 99.8389 16.1653 99.3276 15.5753C98.8163 14.946 98.1083 14.6313 97.2037 14.6313C96.4958 14.6313 95.7091 14.887 94.8438 15.3983C94.0179 15.9096 93.2706 16.7946 92.602 18.0532C91.9333 19.2724 91.5007 20.9834 91.304 23.1859C92.5626 23.7759 93.6836 24.0709 94.6669 24.0709Z" fill="white"/>
<path d="M62.5438 40.0001C59.6726 40.0001 57.2931 39.4298 55.4052 38.2892C53.5173 37.1092 52.1013 35.5753 51.1574 33.6874C50.2134 31.7602 49.7415 29.6953 49.7415 27.4927C49.7415 25.4081 50.1348 23.3236 50.9214 21.239C51.7474 19.1151 52.9273 17.1879 54.4612 15.4573C56.0345 13.7267 57.9224 12.3305 60.1249 11.2685C62.3668 10.2066 64.884 9.6756 67.6765 9.6756C71.1377 9.6756 73.6549 10.4622 75.2282 12.0355C76.8408 13.5694 77.647 15.4376 77.647 17.6402C77.647 19.5281 77.1357 21.2783 76.1131 22.8909C75.1298 24.4642 73.8122 25.7425 72.1603 26.7257C70.5084 27.6697 68.6992 28.1417 66.7326 28.1417C65.71 28.1417 64.6677 27.9843 63.6058 27.6697C62.5438 27.355 61.5015 26.8634 60.4789 26.1948C60.6756 28.6333 61.3835 30.4032 62.6028 31.5045C63.8221 32.6058 65.2773 33.1564 66.9686 33.1564C68.1485 33.1564 69.3285 32.9401 70.5084 32.5074C71.6883 32.0355 72.77 31.4455 73.7532 30.7375C74.7759 29.9902 75.5625 29.2036 76.1131 28.3777L76.5261 28.6726C76.5261 30.7179 76.0935 32.4681 75.2282 33.9234C74.4022 35.3393 73.3009 36.4996 71.9243 37.4042C70.5477 38.3088 69.0335 38.9775 67.3816 39.4101C65.769 39.8034 64.1564 40.0001 62.5438 40.0001ZM63.9007 24.0709C65.1593 24.0709 66.182 23.7169 66.9686 23.0089C67.7552 22.2616 68.3452 21.3963 68.7385 20.4131C69.1318 19.4298 69.3285 18.5645 69.3285 17.8172C69.3285 16.9126 69.0728 16.1653 68.5615 15.5753C68.0502 14.946 67.3422 14.6313 66.4376 14.6313C65.7296 14.6313 64.943 14.887 64.0777 15.3983C63.2518 15.9096 62.5045 16.7946 61.8358 18.0532C61.1672 19.2724 60.7346 20.9834 60.5379 23.1859C61.7965 23.7759 62.9175 24.0709 63.9007 24.0709Z" fill="white"/>
<path d="M7.0862 39.823C5.67027 39.823 4.392 39.2527 3.25139 38.1121C2.15011 36.9322 1.59948 35.3196 1.59948 33.2744C1.59948 32.2517 1.73714 31.0915 2.01245 29.7935C2.28777 28.4563 2.58276 27.0993 2.89741 25.7227C3.25139 24.3461 3.56604 23.0482 3.84136 21.8289C4.11668 20.6097 4.25434 19.587 4.25434 18.7611C4.25434 18.0925 4.09702 17.5615 3.78237 17.1682C3.46771 16.7355 3.05474 16.5192 2.54343 16.5192C1.87479 16.5192 1.14716 16.9125 0.360538 17.6991L0.00655521 17.4632C-0.0327761 16.8339 0.104884 16.0866 0.419535 15.2213C0.734186 14.356 1.24549 13.53 1.95346 12.7434C2.66142 11.9174 3.58571 11.2291 4.72632 10.6785C5.86693 10.1279 7.22386 9.85254 8.79711 9.85254C10.567 9.85254 11.8846 10.4818 12.7499 11.7404C13.6545 12.9597 14.1068 14.4346 14.1068 16.1652C14.1068 16.3619 14.1068 16.5782 14.1068 16.8142C14.1068 17.0108 14.0872 17.2075 14.0478 17.4042C14.7951 16.1849 15.6604 15.0049 16.6437 13.8643C17.6663 12.7237 18.8069 11.7798 20.0655 11.0325C21.3635 10.2459 22.7597 9.85254 24.2543 9.85254C26.1816 9.85254 27.5188 10.4818 28.2661 11.7404C29.0134 12.9597 29.3871 14.356 29.3871 15.9292C29.3871 16.2439 29.3674 16.5585 29.3281 16.8732C29.3281 17.1485 29.3084 17.4238 29.2691 17.6991C30.095 16.4799 30.9997 15.2803 31.9829 14.1003C33.0056 12.8811 34.1658 11.8781 35.4638 11.0915C36.7617 10.2655 38.2563 9.85254 39.9475 9.85254C42.0321 9.85254 43.448 10.4622 44.1953 11.6814C44.982 12.9007 45.3753 14.3363 45.3753 15.9882C45.3753 17.4435 45.1983 19.1151 44.8443 21.003C44.4903 22.8516 44.1363 24.6805 43.7824 26.4897C43.4284 28.2989 43.2514 29.8329 43.2514 31.0915C43.2514 31.8388 43.3497 32.4484 43.5464 32.9204C43.7823 33.3924 44.156 33.6283 44.6673 33.6283C45.0999 33.6283 45.4933 33.5103 45.8472 33.2744C46.2406 32.999 46.5159 32.6844 46.6732 32.3304L47.1452 32.5074C47.1452 33.9627 46.7322 35.2409 45.9062 36.3422C45.0803 37.4435 44.038 38.3088 42.7794 38.9381C41.5208 39.528 40.2622 39.823 39.0036 39.823C37.4697 39.823 36.1127 39.3117 34.9328 38.2891C33.7922 37.2665 33.2219 35.5752 33.2219 33.2154C33.2219 31.7601 33.3989 30.1868 33.7529 28.4956C34.1462 26.8044 34.5198 25.1721 34.8738 23.5988C35.2671 21.9863 35.4638 20.6687 35.4638 19.646C35.4638 18.1908 34.9525 17.4632 33.9298 17.4632C33.1825 17.4632 32.4353 17.7778 31.688 18.4071C30.98 18.9971 30.331 19.8034 29.7411 20.826C29.1904 21.8093 28.7381 22.8516 28.3841 23.9528C28.0301 25.0541 27.8532 26.1161 27.8532 27.1387C27.8532 28.0826 27.9515 29.1249 28.1481 30.2655C28.3841 31.3668 28.5021 32.4287 28.5021 33.4513C28.5021 35.4966 27.9318 37.0698 26.7912 38.1711C25.6506 39.2724 24.3133 39.823 22.7794 39.823C21.3635 39.823 20.0852 39.3511 18.9446 38.4071C17.8433 37.4631 17.2927 36.0472 17.2927 34.1593C17.2927 33.294 17.4107 32.2517 17.6467 31.0325C17.8827 29.7739 18.1383 28.4759 18.4136 27.1387C18.7283 25.7621 19.0036 24.4445 19.2396 23.1859C19.4756 21.9273 19.5936 20.826 19.5936 19.882C19.5936 19.1347 19.4756 18.5448 19.2396 18.1121C19.0429 17.6795 18.63 17.4632 18.0006 17.4632C17.096 17.4632 16.2307 17.9155 15.4048 18.8201C14.5788 19.7247 13.8709 20.826 13.2809 22.1239C12.6909 23.3825 12.2976 24.6018 12.1009 25.7817C12.0616 26.0571 12.0223 26.2734 11.983 26.4307C11.983 26.588 11.983 26.6667 11.983 26.6667C11.983 27.886 12.1206 29.0069 12.3959 30.0295C12.6713 31.0128 12.8089 32.0354 12.8089 33.0974C12.8089 35.0246 12.2189 36.6372 11.039 37.9351C9.89839 39.1937 8.58079 39.823 7.0862 39.823Z" fill="white"/>
<path opacity="0.7" d="M61.6984 53.707V59.0137H56.379V53.707H61.6984ZM57.5597 58.0615H60.5177V54.6846H57.5597V58.0615ZM57.6613 63.8379V60.2324H58.8673V62.8604H65.3546V63.8379H57.6613ZM63.6661 61.0322V52.6914H64.8722V56.0938H66.5226V57.1094H64.8722V61.0322H63.6661ZM77.796 57.1729V58.1631H76.0314V64.0664H74.8253V52.7041H76.0314V57.1729H77.796ZM67.6017 61.21V53.8086H68.795V60.207C70.382 60.2007 72.0387 60.0674 73.8478 59.6992L73.9874 60.7148C72.0387 61.1021 70.2487 61.2163 68.5411 61.21H67.6017ZM87.6095 53.7959V54.9131C87.6031 56.3159 87.6031 57.8901 87.1779 60.2197L85.9591 60.0928C86.3971 57.8901 86.3971 56.2778 86.4034 54.9131V54.7734H79.4972V53.7959H87.6095ZM78.4054 62.543V61.54H82.3536V57.5283H83.547V61.54H88.7775V62.543H78.4054ZM102.247 52.7168V59.0264H101.041V52.7168H102.247ZM92.8527 57.8584C94.63 57.2744 95.7155 55.8018 95.7218 54.2275V53.123H96.9532V54.2275C96.9469 55.7319 98.0387 57.1221 99.7843 57.6553L99.2003 58.6074C97.8673 58.1758 96.8644 57.2808 96.3439 56.1318C95.8297 57.3696 94.8141 58.3472 93.4493 58.8105L92.8527 57.8584ZM94.5157 63.9395V62.9619H96.1407V60.6133H94.6173V59.6484H102.323V60.6133H100.825V62.9619H102.438V63.9395H94.5157ZM97.3341 62.9619H99.632V60.6133H97.3341V62.9619ZM114.422 58.6455V59.6104H104.05V58.6455H114.422ZM105.167 55.3574C105.161 53.9292 106.754 53.0786 109.23 53.085C111.693 53.0786 113.286 53.9292 113.292 55.3574C113.286 56.792 111.693 57.6616 109.23 57.668C106.754 57.6616 105.161 56.792 105.167 55.3574ZM105.358 63.8379V60.5371H106.576V62.8604H113.254V63.8379H105.358ZM106.411 55.3574C106.405 56.2017 107.484 56.6777 109.23 56.6777C110.969 56.6777 112.054 56.2017 112.048 55.3574C112.054 54.5449 110.969 54.0498 109.23 54.0498C107.484 54.0498 106.405 54.5449 106.411 55.3574ZM124.261 53.4912C124.267 54.9131 126.089 56.2905 128.247 56.6016L127.777 57.5537C125.968 57.2554 124.381 56.3223 123.651 55.0464C122.928 56.3413 121.328 57.2808 119.513 57.5791L119.056 56.627C121.214 56.2969 123.023 54.9575 123.029 53.4912V52.9961H124.261V53.4912ZM118.446 59.4072V58.4297H128.857V59.4072H124.337V61.6035H123.144V59.4072H118.446ZM119.741 63.8379V60.5371H120.947V62.8604H127.701V63.8379H119.741ZM138.632 52.7041V56.0684H140.282V57.0713H138.632V60.9688H137.413V52.7041H138.632ZM129.682 58.7598C132.348 57.96 133.998 56.4429 134.233 54.5703H130.164V53.5674H135.547C135.547 56.5508 133.516 58.7153 130.19 59.7246L129.682 58.7598ZM131.408 63.8379V60.1182H132.627V62.8604H139.102V63.8379H131.408ZM142.974 62.124L141.958 65.6279H140.879L141.552 62.124H142.974ZM156.862 52.7041V60.3086H155.656V52.7041H156.862ZM148.026 58.7471V53.6689H153.435V58.7471H148.026ZM148.712 63.0762C150.845 62.7334 152.476 61.4956 152.483 59.9658V59.6484H153.739V59.9658C153.727 61.4956 155.326 62.7271 157.484 63.0762L157.015 64.0283C155.237 63.7109 153.771 62.8413 153.105 61.5781C152.419 62.8413 150.94 63.7109 149.182 64.0283L148.712 63.0762ZM149.207 57.7695H152.241V54.6338H149.207V57.7695ZM168.098 52.7041V60.3086H166.892V52.7041H168.098ZM159.262 58.7471V53.6689H164.67V58.7471H159.262ZM159.947 63.0762C162.08 62.7334 163.712 61.4956 163.718 59.9658V59.6484H164.975V59.9658C164.962 61.4956 166.562 62.7271 168.72 63.0762L168.25 64.0283C166.473 63.7109 165.006 62.8413 164.34 61.5781C163.654 62.8413 162.175 63.7109 160.417 64.0283L159.947 63.0762ZM160.443 57.7695H163.477V54.6338H160.443V57.7695ZM178.762 52.7041V57.3125H180.59V58.3154H178.762V64.0791H177.568V52.7041H178.762ZM169.837 55.4717V54.4814H172.643V52.8564H173.849V54.4814H176.578V55.4717H169.837ZM170.421 58.9502C170.421 57.4014 171.614 56.3096 173.252 56.3096C174.883 56.3096 176.077 57.4014 176.083 58.9502C176.077 60.5117 174.883 61.5972 173.252 61.6035C171.614 61.5972 170.421 60.5117 170.421 58.9502ZM171.576 58.9502C171.57 59.9404 172.281 60.6006 173.252 60.5879C174.217 60.6006 174.922 59.9404 174.928 58.9502C174.922 57.979 174.217 57.3062 173.252 57.2998C172.281 57.3062 171.57 57.979 171.576 58.9502ZM184.602 55.8145C184.602 57.6299 185.363 59.5659 186.887 60.499L186.214 61.4258C185.148 60.7847 184.43 59.6484 184.037 58.3345C183.624 59.7754 182.837 61.0068 181.733 61.6797L180.984 60.7783C182.589 59.8135 183.44 57.8013 183.434 55.8652V53.7451H184.602V55.8145ZM185.655 57.7061V56.7031H187.42V52.9199H188.563V63.5205H187.42V57.7061H185.655ZM189.769 64.0791V52.7041H190.924V64.0791H189.769ZM202.781 61.6543V62.6572H192.371V61.6543H194.859V58.6836C193.926 58.1694 193.355 57.3569 193.361 56.335C193.355 54.5449 195.113 53.3706 197.551 53.3643C199.995 53.3706 201.753 54.5449 201.753 56.335C201.753 57.3379 201.207 58.144 200.293 58.6582V61.6543H202.781ZM194.529 56.335C194.529 57.5537 195.767 58.3472 197.551 58.3535C199.322 58.3472 200.579 57.5537 200.585 56.335C200.579 55.1099 199.322 54.3291 197.551 54.3291C195.767 54.3291 194.529 55.1099 194.529 56.335ZM196.053 61.6543H199.074V59.1279C198.611 59.2358 198.097 59.293 197.551 59.293C197.018 59.293 196.51 59.2358 196.053 59.1279V61.6543ZM205.701 53.8086L205.587 60.3467H204.33L204.216 53.8086H205.701ZM204.064 62.1875C204.057 61.6924 204.47 61.2861 204.965 61.2861C205.454 61.2861 205.86 61.6924 205.866 62.1875C205.86 62.6826 205.454 63.0825 204.965 63.0889C204.47 63.0825 204.057 62.6826 204.064 62.1875Z" fill="#E8E8E8"/>
</svg>
