<svg width="40" height="40" viewBox="0 0 40 40" fill="none" xmlns="http://www.w3.org/2000/svg">
    <rect width="40" height="40" rx="20" fill="#222222"/>
    <g clip-path="url(#clip0_53_14125)">
        <path d="M25.5884 16.999C25.5034 17.0649 24.0018 17.9111 24.0018 19.7925C24.0018 21.9686 25.9125 22.7384 25.9697 22.7575C25.9609 22.8044 25.6662 23.8119 24.9623 24.8383C24.3347 25.7416 23.6792 26.6435 22.682 26.6435C21.6849 26.6435 21.4283 26.0642 20.2771 26.0642C19.1553 26.0642 18.7565 26.6625 17.8444 26.6625C16.9323 26.6625 16.2959 25.8267 15.5641 24.8002C14.7165 23.5948 14.0317 21.7222 14.0317 19.945C14.0317 17.0943 15.8853 15.5824 17.7095 15.5824C18.6788 15.5824 19.4867 16.2188 20.0953 16.2188C20.6745 16.2188 21.5778 15.5443 22.6806 15.5443C23.0985 15.5443 24.6001 15.5824 25.5884 16.999ZM22.1571 14.3374C22.6131 13.7963 22.9357 13.0455 22.9357 12.2947C22.9357 12.1906 22.9269 12.0851 22.9079 12C22.1659 12.0279 21.2831 12.4942 20.7508 13.1115C20.3329 13.5866 19.9428 14.3374 19.9428 15.0985C19.9428 15.2129 19.9619 15.3273 19.9707 15.3639C20.0176 15.3727 20.0938 15.383 20.1701 15.383C20.8358 15.383 21.6731 14.9372 22.1571 14.3374Z"
              fill="white"/>
    </g>
    <defs>
        <clipPath id="clip0_53_14125">
            <rect width="11.9365" height="14.664" fill="white" transform="translate(14.0317 12)"/>
        </clipPath>
    </defs>
</svg>
