<svg width="40" height="40" viewBox="0 0 40 40" fill="none" xmlns="http://www.w3.org/2000/svg">
<rect width="40" height="40" rx="20" fill="white"/>
<mask id="mask0_53_14107" style="mask-type:luminance" maskUnits="userSpaceOnUse" x="12" y="12" width="15" height="16">
<path d="M26.8333 18.6666H20V21.5H23.9333C23.5666 23.3 22.0333 24.3333 20 24.3333C17.6 24.3333 15.6666 22.4 15.6666 20C15.6666 17.6 17.6 15.6666 20 15.6666C21.0333 15.6666 21.9666 16.0333 22.7 16.6333L24.8333 14.5C23.5333 13.3666 21.8666 12.6666 20 12.6666C15.9333 12.6666 12.6666 15.9333 12.6666 20C12.6666 24.0666 15.9333 27.3333 20 27.3333C23.6666 27.3333 27 24.6666 27 20C27 19.5666 26.9333 19.1 26.8333 18.6666Z" fill="white"/>
</mask>
<g mask="url(#mask0_53_14107)">
<path d="M12 24.3333V15.6666L17.6667 20L12 24.3333Z" fill="#FBBC05"/>
</g>
<mask id="mask1_53_14107" style="mask-type:luminance" maskUnits="userSpaceOnUse" x="12" y="12" width="15" height="16">
<path d="M26.8333 18.6666H20V21.5H23.9333C23.5666 23.3 22.0333 24.3333 20 24.3333C17.6 24.3333 15.6666 22.4 15.6666 20C15.6666 17.6 17.6 15.6666 20 15.6666C21.0333 15.6666 21.9666 16.0333 22.7 16.6333L24.8333 14.5C23.5333 13.3666 21.8666 12.6666 20 12.6666C15.9333 12.6666 12.6666 15.9333 12.6666 20C12.6666 24.0666 15.9333 27.3333 20 27.3333C23.6666 27.3333 27 24.6666 27 20C27 19.5666 26.9333 19.1 26.8333 18.6666Z" fill="white"/>
</mask>
<g mask="url(#mask1_53_14107)">
<path d="M12 15.6666L17.6667 19.9999L20 17.9666L28 16.6666V11.9999H12V15.6666Z" fill="#EA4335"/>
</g>
<mask id="mask2_53_14107" style="mask-type:luminance" maskUnits="userSpaceOnUse" x="12" y="12" width="15" height="16">
<path d="M26.8333 18.6666H20V21.5H23.9333C23.5666 23.3 22.0333 24.3333 20 24.3333C17.6 24.3333 15.6666 22.4 15.6666 20C15.6666 17.6 17.6 15.6666 20 15.6666C21.0333 15.6666 21.9666 16.0333 22.7 16.6333L24.8333 14.5C23.5333 13.3666 21.8666 12.6666 20 12.6666C15.9333 12.6666 12.6666 15.9333 12.6666 20C12.6666 24.0666 15.9333 27.3333 20 27.3333C23.6666 27.3333 27 24.6666 27 20C27 19.5666 26.9333 19.1 26.8333 18.6666Z" fill="white"/>
</mask>
<g mask="url(#mask2_53_14107)">
<path d="M12 24.3333L22 16.6666L24.6333 16.9999L28 11.9999V27.9999H12V24.3333Z" fill="#34A853"/>
</g>
<mask id="mask3_53_14107" style="mask-type:luminance" maskUnits="userSpaceOnUse" x="12" y="12" width="15" height="16">
<path d="M26.8333 18.6666H20V21.5H23.9333C23.5666 23.3 22.0333 24.3333 20 24.3333C17.6 24.3333 15.6666 22.4 15.6666 20C15.6666 17.6 17.6 15.6666 20 15.6666C21.0333 15.6666 21.9666 16.0333 22.7 16.6333L24.8333 14.5C23.5333 13.3666 21.8666 12.6666 20 12.6666C15.9333 12.6666 12.6666 15.9333 12.6666 20C12.6666 24.0666 15.9333 27.3333 20 27.3333C23.6666 27.3333 27 24.6666 27 20C27 19.5666 26.9333 19.1 26.8333 18.6666Z" fill="white"/>
</mask>
<g mask="url(#mask3_53_14107)">
<path d="M27.9999 28L17.6666 20L16.3333 19L27.9999 15.6666V28Z" fill="#4285F4"/>
</g>
</svg>
