<svg width="24" height="23" viewBox="0 0 24 23" fill="none" xmlns="http://www.w3.org/2000/svg">
    <path fill-rule="evenodd" clip-rule="evenodd"
          d="M11.9772 18.5166C10.4107 18.5148 8.90887 17.8918 7.80117 16.784C6.69347 15.6764 6.07038 14.1745 6.06859 12.608C6.07008 11.0413 6.69304 9.53912 7.80077 8.43118C8.9085 7.32323 10.4105 6.69999 11.9772 6.6982C13.544 6.69999 15.046 7.32323 16.1537 8.43118C17.2614 9.53912 17.8844 11.0413 17.8859 12.608C17.8841 14.1745 17.261 15.6764 16.1533 16.784C15.0456 17.8918 13.5438 18.5148 11.9772 18.5166ZM21.115 3.72698H17.7879L16.5343 1.284C16.3355 0.897259 16.034 0.5728 15.6628 0.346279C15.2916 0.119759 14.8652 -5.67366e-05 14.4304 2.0155e-08H9.45993C9.01653 -5.27666e-05 8.58205 0.124526 8.20606 0.359524C7.83006 0.594522 7.52769 0.930474 7.33344 1.32905L6.16658 3.72698H2.83944C2.46661 3.72683 2.09741 3.80014 1.75292 3.94271C1.40843 4.08528 1.0954 4.29433 0.831722 4.5579C0.56804 4.82148 0.358871 5.13442 0.216161 5.47886C0.0734524 5.82329 -2.93547e-08 6.19247 0 6.56529V19.6317C-2.93547e-08 20.0045 0.0734524 20.3737 0.216161 20.7181C0.358871 21.0626 0.56804 21.3755 0.831722 21.6391C1.0954 21.9027 1.40843 22.1117 1.75292 22.2543C2.09741 22.3968 2.46661 22.4701 2.83944 22.47H21.115C21.4879 22.4701 21.8571 22.3968 22.2016 22.2543C22.5461 22.1117 22.8591 21.9027 23.1228 21.6391C23.3864 21.3755 23.5956 21.0626 23.7383 20.7181C23.881 20.3737 23.9545 20.0045 23.9545 19.6317V6.56529C23.9545 6.19247 23.881 5.82329 23.7383 5.47886C23.5956 5.13442 23.3864 4.82148 23.1228 4.5579C22.8591 4.29433 22.5461 4.08528 22.2016 3.94271C21.8571 3.80014 21.4879 3.72683 21.115 3.72698Z"
          fill="#898D99"/>
    <path fill-rule="evenodd" clip-rule="evenodd"
          d="M11.9761 8.82617C10.974 8.82736 10.0134 9.22602 9.30497 9.93467C8.59653 10.6433 8.19816 11.6041 8.19727 12.6061C8.19786 13.6082 8.59614 14.5691 9.30464 15.2778C10.0131 15.9865 10.9739 16.3851 11.9761 16.386C12.9782 16.3851 13.939 15.9865 14.6475 15.2778C15.356 14.5691 15.7542 13.6082 15.7548 12.6061C15.7539 11.6041 15.3556 10.6433 14.6471 9.93467C13.9387 9.22602 12.9781 8.82736 11.9761 8.82617Z"
          fill="#898D99"/>
</svg>
