<svg width="16" height="16" viewBox="0 0 16 16" fill="none" xmlns="http://www.w3.org/2000/svg">
    <g clip-path="url(#clip0_1_3829)">
        <path fill-rule="evenodd" clip-rule="evenodd"
              d="M12.7333 5.5332H11.6667V7.1332H12.7333C13.2 7.1332 13.5333 7.46654 13.5333 7.9332V12.7332C13.5333 13.1999 13.2 13.5332 12.7333 13.5332H7.93332C7.46666 13.5332 7.13332 13.1999 7.13332 12.7332V11.7999H5.53333V12.7332C5.53333 14.0665 6.59999 15.1332 7.93332 15.1332H12.7333C14.0667 15.1332 15.1333 14.0665 15.1333 12.7332V7.9332C15.1333 6.59987 14.0667 5.5332 12.7333 5.5332Z"
              fill="#7D8A9F"/>
        <path fill-rule="evenodd" clip-rule="evenodd"
              d="M3.2667 2.4667C2.80003 2.4667 2.4667 2.80003 2.4667 3.2667V8.0667C2.4667 8.53337 2.80003 8.8667 3.2667 8.8667H8.0667C8.53337 8.8667 8.8667 8.53337 8.8667 8.0667V3.2667C8.8667 2.80003 8.53337 2.4667 8.0667 2.4667H3.2667ZM8.0667 10.4667H3.2667C1.93337 10.4667 0.866699 9.40003 0.866699 8.0667V3.2667C0.866699 1.93337 1.93337 0.866699 3.2667 0.866699H8.0667C9.40003 0.866699 10.4667 1.93337 10.4667 3.2667V8.0667C10.4667 9.40003 9.40003 10.4667 8.0667 10.4667Z"
              fill="#7D8A9F"/>
    </g>
    <defs>
        <clipPath id="clip0_1_3829">
            <rect width="16" height="16" fill="white"/>
        </clipPath>
    </defs>
</svg>
