<svg width="91" height="112" viewBox="0 0 91 112" fill="none" xmlns="http://www.w3.org/2000/svg">
<path d="M90.6179 90.8842C79.6282 103.25 63.6017 111.042 45.7558 111.042C27.9099 111.042 11.0064 102.816 0 89.8554C0.571581 88.7359 1.21566 87.6708 1.94198 86.6921C6.31388 80.7993 20.5686 78.4474 22.7657 77.7476C25.8397 76.7689 30.0331 77.0478 31.2906 74.1132C32.5481 71.1786 32.339 63.8679 32.339 63.8679C32.339 63.8679 27.8946 59.2005 26.1659 51.8494C25.6682 49.7331 22.2526 51.1983 20.6689 45.049C19.1034 38.9721 22.7238 40.7203 22.8103 40.7621C22.7322 40.6924 18.989 37.3424 18.805 31.0731C18.6182 24.7383 18.1526 17.7497 21.9264 11.7397C25.6989 5.72975 33.6661 2.09673 36.0417 1.53769C38.4172 0.978658 41.9122 0 45.5453 0C49.1783 0 52.5339 0.978658 55.4685 2.65576C58.4031 4.33286 62.5951 5.45093 64.5524 6.00997C66.5084 6.569 69.8626 8.94455 72.3789 14.1167C74.8953 19.2874 69.0247 38.5734 69.0247 38.5734C69.0247 38.5734 71.8199 39.5506 70.423 43.7441C69.0247 47.9375 68.7459 49.6146 65.5311 51.0115C65.5311 51.0115 63.4344 58.279 59.2423 62.8907C59.2423 62.8907 57.1456 70.4801 60.221 73.9738C63.295 77.4674 70.2836 78.5854 73.2182 79.4247C76.1527 80.2626 86.9152 82.7789 90.1286 89.7661C90.2931 90.123 90.4562 90.4966 90.6165 90.8842H90.6179Z" fill="white"/>
</svg>
