<svg width="20" height="20" viewBox="0 0 20 20" fill="none" xmlns="http://www.w3.org/2000/svg">
    <path fill-rule="evenodd" clip-rule="evenodd"
          d="M12.8124 16.7501C12.6647 16.7502 12.5184 16.721 12.382 16.6644C12.2455 16.6078 12.1216 16.5247 12.0174 16.4201L6.39238 10.7951C6.28787 10.6906 6.20497 10.5666 6.14842 10.4301C6.09186 10.2935 6.06274 10.1472 6.06274 9.99946C6.06274 9.85169 6.09186 9.70537 6.14842 9.56885C6.20497 9.43234 6.28787 9.3083 6.39238 9.20383L12.0174 3.57883C12.121 3.47073 12.2452 3.38441 12.3827 3.32493C12.5201 3.26546 12.6681 3.23403 12.8178 3.23248C12.9676 3.23094 13.1161 3.25931 13.2548 3.31593C13.3934 3.37256 13.5194 3.4563 13.6252 3.56224C13.7311 3.66818 13.8147 3.79419 13.8712 3.93289C13.9278 4.07158 13.956 4.22016 13.9544 4.36992C13.9527 4.51967 13.9211 4.66759 13.8616 4.80499C13.802 4.94239 13.7156 5.06652 13.6074 5.17008L8.77863 10.0001L13.6074 14.8288C13.7649 14.9861 13.8723 15.1866 13.9159 15.4049C13.9595 15.6232 13.9373 15.8495 13.8522 16.0552C13.767 16.2609 13.6228 16.4368 13.4377 16.5604C13.2526 16.6841 13.035 16.7501 12.8124 16.7501Z"
          fill="#FA1155"/>
</svg>
