<svg width="40" height="40" viewBox="0 0 40 40" fill="none" xmlns="http://www.w3.org/2000/svg">
<rect opacity="0.6" width="40" height="40" rx="20" fill="#4D67EB"/>
<path fill-rule="evenodd" clip-rule="evenodd" d="M24.6544 14.899C24.6545 15.5112 24.5339 16.1174 24.2997 16.683C24.0655 17.2487 23.7221 17.7626 23.2893 18.1956C22.8564 18.6285 22.3425 18.972 21.777 19.2063C21.2114 19.4406 20.6052 19.5613 19.993 19.5614C18.7565 19.5615 17.5707 19.0704 16.6964 18.1963C15.822 17.3221 15.3307 16.1363 15.3306 14.8999C15.3305 14.2877 15.451 13.6815 15.6853 13.1159C15.9195 12.5502 16.2628 12.0363 16.6957 11.6033C17.5699 10.729 18.7556 10.2377 19.992 10.2375C21.2284 10.2374 22.4142 10.7285 23.2886 11.6027C24.163 12.4768 24.6543 13.6626 24.6544 14.899ZM19.9925 20.9875C13.2792 20.9875 10.6677 25.2599 10.6677 27.2475C10.6677 29.2342 16.2268 29.7637 19.9925 29.7637C23.7582 29.7637 29.3172 29.2342 29.3172 27.2475C29.3172 25.2599 26.7058 20.9875 19.9925 20.9875Z" fill="white"/>
</svg>
