<svg width="12" height="12" viewBox="0 0 12 12" fill="none" xmlns="http://www.w3.org/2000/svg">
<path d="M5.375 1.22503C5.72 0.930034 6.285 0.930034 6.635 1.22503L7.425 1.90503C7.575 2.03503 7.855 2.14003 8.055 2.14003H8.905C9.435 2.14003 9.87 2.57503 9.87 3.10503V3.95503C9.87 4.15003 9.975 4.43503 10.105 4.58503L10.785 5.37503C11.08 5.72003 11.08 6.28503 10.785 6.63503L10.105 7.42503C9.975 7.57503 9.87 7.85503 9.87 8.05503V8.90503C9.87 9.43503 9.435 9.87003 8.905 9.87003H8.055C7.86 9.87003 7.575 9.97503 7.425 10.105L6.635 10.785C6.29 11.08 5.725 11.08 5.375 10.785L4.585 10.105C4.435 9.97503 4.155 9.87003 3.955 9.87003H3.09C2.56 9.87003 2.125 9.43503 2.125 8.90503V8.05003C2.125 7.85503 2.02 7.57503 1.895 7.42503L1.22 6.63003C0.93 6.28503 0.93 5.72503 1.22 5.38003L1.895 4.58503C2.02 4.43503 2.125 4.15503 2.125 3.96003V3.10003C2.125 2.57003 2.56 2.13503 3.09 2.13503H3.955C4.15 2.13503 4.435 2.03003 4.585 1.90003L5.375 1.22503Z" fill="#4D67EB"/>
<path d="M4.19 6.00004L5.395 7.21004L7.81 4.79004" stroke="white" stroke-width="1.2" stroke-linecap="round" stroke-linejoin="round"/>
</svg>
