<svg width="28" height="28" viewBox="0 0 28 28" fill="none" xmlns="http://www.w3.org/2000/svg">
    <path fill-rule="evenodd" clip-rule="evenodd"
          d="M20.9239 11.4611L14.4755 6.17143C14.3405 6.06052 14.1731 6.00012 14.0006 6.00012C13.8281 6.00012 13.6607 6.06052 13.5258 6.17143L7.07661 11.4611C6.89687 11.6085 6.7517 11.7959 6.6519 12.0093C6.55211 12.2227 6.50027 12.4566 6.50024 12.6935V20.1101C6.50024 20.6114 6.69327 21.0921 7.03687 21.4466C7.38047 21.801 7.84648 22.0001 8.3324 22.0001H12.4738V18.2579C12.4738 18.0491 12.5543 17.8488 12.6974 17.7011C12.8406 17.5534 13.0348 17.4704 13.2372 17.4704H14.764C14.9665 17.4704 15.1607 17.5534 15.3038 17.7011C15.447 17.8488 15.5274 18.0491 15.5274 18.2579V22.0001H19.6681C20.154 22.0001 20.62 21.801 20.9636 21.4466C21.3072 21.0921 21.5002 20.6114 21.5002 20.1101V12.6943C21.5002 12.4574 21.4484 12.2235 21.3486 12.0101C21.2488 11.7967 21.1036 11.6093 20.9239 11.4618"
          fill="#C8C8C8"/>
</svg>
