<svg width="28" height="28" viewBox="0 0 28 28" fill="none" xmlns="http://www.w3.org/2000/svg">
<path fill-rule="evenodd" clip-rule="evenodd" d="M13.9999 6C18.446 6 22.0503 9.26078 22.0503 13.2837C22.0503 15.2211 21.2085 16.9768 19.8453 18.2825L20.5108 21.5402C20.5249 21.6099 20.5194 21.6822 20.4949 21.7489C20.4704 21.8156 20.4278 21.8742 20.3718 21.9182C20.3159 21.9621 20.2489 21.9896 20.1782 21.9976C20.1076 22.0056 20.0361 21.9938 19.9718 21.9635L16.3445 20.2514C15.5807 20.4613 14.7921 20.5675 13.9999 20.5673C9.55385 20.5673 5.94959 17.3065 5.94959 13.2837C5.94959 9.26078 9.55385 6 13.9999 6Z" fill="#C8C8C8"/>
</svg>
