<svg width="28" height="28" viewBox="0 0 28 28" fill="none" xmlns="http://www.w3.org/2000/svg">
    <path fill-rule="evenodd" clip-rule="evenodd"
          d="M17.82 9.81963C17.82 10.3213 17.7213 10.818 17.5293 11.2815C17.3374 11.745 17.0561 12.1662 16.7014 12.5209C16.3467 12.8757 15.9256 13.1571 15.4622 13.3491C14.9987 13.5411 14.502 13.64 14.0003 13.64C12.9872 13.6401 12.0155 13.2378 11.2991 12.5215C10.5826 11.8051 10.18 10.8335 10.1799 9.82041C10.1799 9.31876 10.2786 8.82201 10.4706 8.35852C10.6625 7.89504 10.9438 7.47389 11.2985 7.11913C12.0148 6.40267 12.9864 6.0001 13.9996 6C15.0127 5.9999 15.9844 6.40226 16.7008 7.11858C17.4173 7.8349 17.8199 8.8065 17.82 9.81963ZM14 14.8087C8.49897 14.8087 6.35913 18.3095 6.35913 19.9382C6.35913 21.5661 10.9143 22 14 22C17.0856 22 21.6408 21.5661 21.6408 19.9382C21.6408 18.3095 19.5009 14.8087 14 14.8087Z"
          fill="#FA1155"/>
</svg>
