<svg width="28" height="28" viewBox="0 0 28 28" fill="none" xmlns="http://www.w3.org/2000/svg">
    <path fill-rule="evenodd" clip-rule="evenodd"
          d="M21.1791 17.1992L19.9842 16.6013L15.2201 18.9834C14.8412 19.1721 14.4236 19.27 14.0002 19.2694C13.5769 19.27 13.1593 19.172 12.7804 18.9834L8.01627 16.6013L6.82057 17.1992C6.69086 17.2638 6.58174 17.3633 6.50547 17.4866C6.4292 17.6098 6.38879 17.7519 6.38879 17.8968C6.38879 18.0417 6.4292 18.1838 6.50547 18.307C6.58174 18.4302 6.69086 18.5298 6.82057 18.5944L13.3034 21.8347C13.5198 21.9431 13.7586 21.9996 14.0006 21.9996C14.2427 21.9996 14.4814 21.9431 14.6979 21.8347L21.1799 18.5936C21.3094 18.5289 21.4184 18.4294 21.4945 18.3062C21.5706 18.1831 21.6109 18.0412 21.6109 17.8964C21.6109 17.7516 21.5706 17.6097 21.4945 17.4866C21.4184 17.3634 21.3094 17.2639 21.1799 17.1992"
          fill="#FA1155"/>
    <path fill-rule="evenodd" clip-rule="evenodd"
          d="M21.1791 13.3022L19.9842 12.7043L15.2201 15.0864C14.8412 15.2751 14.4236 15.3731 14.0002 15.3725C13.5769 15.373 13.1593 15.275 12.7804 15.0864L8.01627 12.7043L6.82057 13.3022C6.69086 13.3668 6.58174 13.4664 6.50547 13.5896C6.4292 13.7128 6.38879 13.8549 6.38879 13.9998C6.38879 14.1447 6.4292 14.2868 6.50547 14.41C6.58174 14.5333 6.69086 14.6328 6.82057 14.6974L13.3034 17.9377C13.5198 18.0461 13.7586 18.1026 14.0006 18.1026C14.2427 18.1026 14.4814 18.0461 14.6979 17.9377L21.1799 14.6967C21.3094 14.6319 21.4184 14.5324 21.4945 14.4093C21.5706 14.2861 21.6109 14.1442 21.6109 13.9994C21.6109 13.8547 21.5706 13.7127 21.4945 13.5896C21.4184 13.4664 21.3094 13.3669 21.1799 13.3022"
          fill="#FA1155"/>
    <path fill-rule="evenodd" clip-rule="evenodd"
          d="M13.3036 14.0412L6.82157 10.7994C6.69227 10.7346 6.58355 10.6351 6.50757 10.512C6.4316 10.3889 6.39136 10.2471 6.39136 10.1025C6.39136 9.95788 6.4316 9.81611 6.50757 9.69304C6.58355 9.56997 6.69227 9.47047 6.82157 9.40567L13.3036 6.16464C13.5201 6.05621 13.7588 5.99976 14.0009 5.99976C14.2429 5.99976 14.4817 6.05621 14.6981 6.16464L21.1802 9.40567C21.3097 9.4704 21.4186 9.56991 21.4947 9.69306C21.5708 9.81621 21.6111 9.95813 21.6111 10.1029C21.6111 10.2477 21.5708 10.3896 21.4947 10.5127C21.4186 10.6359 21.3097 10.7354 21.1802 10.8001L14.6981 14.0412C14.4814 14.1493 14.2426 14.2056 14.0005 14.2056C13.7583 14.2056 13.5195 14.1493 13.3028 14.0412"
          fill="#FA1155"/>
</svg>
