<svg width="28" height="28" viewBox="0 0 28 28" fill="none" xmlns="http://www.w3.org/2000/svg">
<path d="M9.55556 12.9333V9.55556H7.77778V10.4444C7.77778 11.0074 7.94074 11.5148 8.26667 11.9667C8.59259 12.4185 9.02222 12.7407 9.55556 12.9333ZM18.4444 12.9333C18.9778 12.7407 19.4074 12.4185 19.7333 11.9667C20.0593 11.5148 20.2222 11.0074 20.2222 10.4444V9.55556H18.4444V12.9333ZM13.1111 20.2222V17.4667C12.3852 17.3037 11.737 16.9963 11.1667 16.5444C10.5963 16.0926 10.1778 15.5259 9.91111 14.8444C8.8 14.7111 7.87037 14.2259 7.12222 13.3889C6.37407 12.5519 6 11.5704 6 10.4444V9.55556C6 9.06667 6.17407 8.64815 6.52222 8.3C6.87037 7.95185 7.28889 7.77778 7.77778 7.77778H9.55556C9.55556 7.28889 9.72963 6.87037 10.0778 6.52222C10.4259 6.17407 10.8444 6 11.3333 6H16.6667C17.1556 6 17.5741 6.17407 17.9222 6.52222C18.2704 6.87037 18.4444 7.28889 18.4444 7.77778H20.2222C20.7111 7.77778 21.1296 7.95185 21.4778 8.3C21.8259 8.64815 22 9.06667 22 9.55556V10.4444C22 11.5704 21.6259 12.5519 20.8778 13.3889C20.1296 14.2259 19.2 14.7111 18.0889 14.8444C17.8222 15.5259 17.4037 16.0926 16.8333 16.5444C16.263 16.9963 15.6148 17.3037 14.8889 17.4667V20.2222H17.5556C17.8074 20.2222 18.0185 20.3074 18.1889 20.4778C18.3593 20.6481 18.4444 20.8593 18.4444 21.1111C18.4444 21.363 18.3593 21.5741 18.1889 21.7444C18.0185 21.9148 17.8074 22 17.5556 22H10.4444C10.1926 22 9.98148 21.9148 9.81111 21.7444C9.64074 21.5741 9.55556 21.363 9.55556 21.1111C9.55556 20.8593 9.64074 20.6481 9.81111 20.4778C9.98148 20.3074 10.1926 20.2222 10.4444 20.2222H13.1111Z" fill="#FA1155"/>
</svg>
