<svg width="28" height="28" viewBox="0 0 28 28" fill="none" xmlns="http://www.w3.org/2000/svg">
<path fill-rule="evenodd" clip-rule="evenodd" d="M17.82 9.81963C17.8201 10.3213 17.7213 10.818 17.5294 11.2815C17.3375 11.745 17.0561 12.1662 16.7015 12.5209C16.3468 12.8757 15.9257 13.1571 15.4622 13.3491C14.9988 13.5411 14.5021 13.64 14.0004 13.64C12.9873 13.6401 12.0156 13.2378 11.2991 12.5215C10.5827 11.8051 10.1801 10.8335 10.18 9.82041C10.1799 9.31876 10.2787 8.82201 10.4706 8.35852C10.6626 7.89504 10.9439 7.47389 11.2986 7.11913C12.0149 6.40267 12.9865 6.0001 13.9996 6C15.0128 5.9999 15.9844 6.40226 16.7009 7.11858C17.4174 7.8349 17.8199 8.8065 17.82 9.81963ZM14 14.8087C8.49903 14.8087 6.35919 18.3095 6.35919 19.9382C6.35919 21.5661 10.9143 22 14 22C17.0857 22 21.6408 21.5661 21.6408 19.9382C21.6408 18.3095 19.501 14.8087 14 14.8087Z" fill="#C8C8C8"/>
</svg>
