<svg width="58" height="58" viewBox="0 0 58 58" fill="none" xmlns="http://www.w3.org/2000/svg">
    <circle cx="29" cy="29" r="28" fill="#111214" fill-opacity="0.4" stroke="white" stroke-opacity="0.04"
            stroke-width="2"/>
    <path fill-rule="evenodd" clip-rule="evenodd"
          d="M29.03 35.5694C27.4635 35.5676 25.9616 34.9445 24.8539 33.8368C23.7462 32.7291 23.1231 31.2272 23.1213 29.6607C23.1228 28.094 23.7458 26.5919 24.8535 25.4839C25.9612 24.376 27.4633 23.7527 29.03 23.7509C30.5967 23.7527 32.0987 24.376 33.2064 25.4839C34.3142 26.5919 34.9371 28.094 34.9386 29.6607C34.9368 31.2272 34.3137 32.7291 33.206 33.8368C32.0983 34.9445 30.5965 35.5676 29.03 35.5694ZM38.1678 20.7797H34.8406L33.587 18.3367C33.3883 17.95 33.0867 17.6255 32.7155 17.399C32.3444 17.1725 31.9179 17.0527 31.4831 17.0527H26.5127C26.0693 17.0527 25.6348 17.1773 25.2588 17.4123C24.8828 17.6473 24.5804 17.9832 24.3862 18.3818L23.2193 20.7797H19.8922C19.5193 20.7796 19.1501 20.8529 18.8057 20.9954C18.4612 21.138 18.1481 21.3471 17.8845 21.6106C17.6208 21.8742 17.4116 22.1872 17.2689 22.5316C17.1262 22.876 17.0527 23.2452 17.0527 23.618V36.6844C17.0527 37.0572 17.1262 37.4264 17.2689 37.7709C17.4116 38.1153 17.6208 38.4282 17.8845 38.6918C18.1481 38.9554 18.4612 39.1644 18.8057 39.307C19.1501 39.4496 19.5193 39.5229 19.8922 39.5227H38.1678C38.5406 39.5229 38.9098 39.4496 39.2543 39.307C39.5988 39.1644 39.9118 38.9554 40.1755 38.6918C40.4392 38.4282 40.6483 38.1153 40.7911 37.7709C40.9338 37.4264 41.0072 37.0572 41.0072 36.6844V23.618C41.0072 23.2452 40.9338 22.876 40.7911 22.5316C40.6483 22.1872 40.4392 21.8742 40.1755 21.6106C39.9118 21.3471 39.5988 21.138 39.2543 20.9954C38.9098 20.8529 38.5406 20.7796 38.1678 20.7797Z"
          fill="#898D99"/>
    <path fill-rule="evenodd" clip-rule="evenodd"
          d="M29.0288 25.8789C28.0268 25.8801 27.0661 26.2788 26.3577 26.9874C25.6493 27.696 25.2509 28.6568 25.25 29.6588C25.2506 30.6609 25.6489 31.6219 26.3574 32.3306C27.0659 33.0393 28.0267 33.4378 29.0288 33.4387C30.0309 33.4378 30.9917 33.0393 31.7002 32.3306C32.4087 31.6219 32.807 30.6609 32.8076 29.6588C32.8067 28.6568 32.4083 27.696 31.6999 26.9874C30.9914 26.2788 30.0308 25.8801 29.0288 25.8789Z"
          fill="#898D99"/>
</svg>
