<svg width="12" height="12" viewBox="0 0 12 12" fill="none" xmlns="http://www.w3.org/2000/svg">
<g clip-path="url(#clip0_1_717)">
<rect width="11" height="11" rx="5.5" fill="white"/>
<path fill-rule="evenodd" clip-rule="evenodd" d="M8.5 6.1235H7.4945L7.1345 7.433C7.10309 7.5501 7.03372 7.65348 6.93728 7.72695C6.84083 7.80041 6.72274 7.83982 6.6015 7.839H6.601C6.349 7.839 6.135 7.6755 6.0685 7.433L5.5 5.369L4.932 7.433C4.90059 7.5501 4.83122 7.65348 4.73478 7.72695C4.63833 7.80041 4.52024 7.83982 4.399 7.839C4.147 7.839 3.933 7.676 3.866 7.4335L3.5055 6.1235H2.5C2.38065 6.1235 2.26619 6.07609 2.1818 5.9917C2.09741 5.90731 2.05 5.79285 2.05 5.6735C2.05 5.55415 2.09741 5.43969 2.1818 5.3553C2.26619 5.27091 2.38065 5.2235 2.5 5.2235H3.258L2.9425 4.0775C2.92505 4.02 2.91929 3.95958 2.92557 3.89982C2.93185 3.84006 2.95003 3.78215 2.97905 3.72953C3.00807 3.67691 3.04733 3.63063 3.09452 3.59343C3.14171 3.55623 3.19588 3.52886 3.25382 3.51293C3.31176 3.497 3.37231 3.49283 3.43188 3.50068C3.49146 3.50853 3.54886 3.52823 3.6007 3.55862C3.65254 3.58902 3.69777 3.62948 3.73372 3.67764C3.76966 3.72579 3.7956 3.78066 3.81 3.839L4.399 5.978L4.967 3.9145C4.99824 3.79726 5.06754 3.69372 5.16402 3.62015C5.26049 3.54657 5.37867 3.50712 5.5 3.508C5.752 3.508 5.9665 3.6715 6.033 3.9145L6.6015 5.978L7.19 3.839C7.20566 3.78201 7.23239 3.72865 7.26867 3.68199C7.30495 3.63533 7.35006 3.59627 7.40144 3.56704C7.45281 3.53782 7.50944 3.51899 7.56809 3.51165C7.62674 3.50431 7.68626 3.50859 7.74325 3.52425C7.80024 3.53991 7.85359 3.56664 7.90026 3.60292C7.94692 3.6392 7.98598 3.68431 8.01521 3.73569C8.04443 3.78706 8.06326 3.84369 8.0706 3.90234C8.07794 3.96099 8.07366 4.02051 8.058 4.0775L7.742 5.2235H8.5C8.61935 5.2235 8.73381 5.27091 8.8182 5.3553C8.90259 5.43969 8.95 5.55415 8.95 5.6735C8.95 5.79285 8.90259 5.90731 8.8182 5.9917C8.73381 6.07609 8.61935 6.1235 8.5 6.1235ZM5.5 0C2.4625 0 0 2.4625 0 5.5C0 8.538 2.4625 11 5.5 11C8.5375 11 11 8.538 11 5.5C11 2.4625 8.5375 0 5.5 0Z" fill="#FA1155"/>
</g>
<defs>
<clipPath id="clip0_1_717">
<rect width="12" height="12" fill="white"/>
</clipPath>
</defs>
</svg>
