<svg width="16" height="16" viewBox="0 0 16 16" fill="none" xmlns="http://www.w3.org/2000/svg">
    <g clip-path="url(#clip0_1_1546)">
        <path fill-rule="evenodd" clip-rule="evenodd"
              d="M5.63999 7.48735C5.48907 7.28406 5.34672 7.07454 5.21332 6.85935C5.13563 6.73207 5.10323 6.58227 5.12139 6.43427C5.13954 6.28627 5.20718 6.14874 5.31332 6.04401L6.72132 4.63601C6.83606 4.52163 6.90507 4.36928 6.91538 4.2076C6.92569 4.04592 6.8766 3.88604 6.77732 3.75801L4.72399 1.10668C4.25732 0.503345 3.37666 0.408679 2.80399 0.911345C2.04932 1.57401 1.14199 2.56735 0.876656 3.68135C0.474657 5.37335 0.955323 7.43068 3.10332 10.024L5.64066 7.48801L5.63999 7.48735ZM14.8933 11.2753L12.2413 9.22201C12.1132 9.12315 11.9535 9.07436 11.792 9.08479C11.6305 9.09522 11.4783 9.16415 11.364 9.27868L9.95599 10.6873C9.85112 10.7933 9.71356 10.8607 9.56559 10.8787C9.41762 10.8968 9.2679 10.8643 9.14066 10.7867C8.78466 10.568 8.23799 10.1853 7.55999 9.57201L13.8993 3.23201C14.0473 3.08157 14.1299 2.87874 14.129 2.6677C14.1282 2.45665 14.044 2.2545 13.8947 2.10527C13.7455 1.95604 13.5433 1.87182 13.3323 1.87096C13.1213 1.8701 12.9184 1.95267 12.768 2.10068L0.76799 14.1007C0.617877 14.2507 0.53351 14.4542 0.533447 14.6664C0.533385 14.8787 0.617632 15.0822 0.767656 15.2323C0.917681 15.3825 1.12119 15.4668 1.33342 15.4669C1.54565 15.467 1.74921 15.3827 1.89932 15.2327L5.04999 12.0813C8.08799 14.928 10.43 15.5727 12.3193 15.1233C13.4327 14.858 14.426 13.95 15.0893 13.1953C15.592 12.622 15.496 11.742 14.894 11.2753"
              fill="white"/>
    </g>
    <defs>
        <clipPath id="clip0_1_1546">
            <rect width="16" height="16" fill="white"/>
        </clipPath>
    </defs>
</svg>
