<svg width="83" height="40" viewBox="0 0 83 40" fill="none" xmlns="http://www.w3.org/2000/svg">
<rect width="83" height="32" rx="16" fill="#1C1E22"/>
<rect x="4" y="4" width="24" height="24" rx="12" fill="url(#paint0_linear_1_1473)"/>
<path d="M13.2285 20V12.2227H16.2793C18.0464 12.2227 19.0615 13.313 19.0615 14.8438C19.0615 16.396 18.0303 17.4648 16.2363 17.4648H14.8398V20H13.2285ZM14.8398 16.165H15.9785C16.9346 16.165 17.4019 15.6279 17.3965 14.8438C17.4019 14.0703 16.9346 13.5493 15.9785 13.5439H14.8398V16.165Z" fill="white"/>
<path d="M36.5273 18.5V17.1055L40.1133 11.5156H42.3281V17.082H43.4062V18.5H42.3281V20H40.6523V18.5H36.5273ZM38.3086 17.082H40.6758V13.4492H40.5938L38.3086 17.0117V17.082ZM46.2773 19.1328L45.2695 22.4727H44.0273L44.6133 19.1328H46.2773ZM50.7656 20.1172C48.6387 20.1172 47.3555 18.5352 47.3555 15.7578C47.3555 12.9863 48.6504 11.3984 50.7656 11.3984C52.8809 11.3984 54.1758 12.9863 54.1758 15.7578C54.1758 18.5469 52.8867 20.1172 50.7656 20.1172ZM49.1602 15.7578C49.1484 17.7148 49.7812 18.6641 50.7656 18.6641C51.75 18.6641 52.377 17.7148 52.3711 15.7578C52.377 13.8184 51.7441 12.8457 50.7656 12.8398C49.7871 12.8457 49.1602 13.8184 49.1602 15.7578ZM58.6875 20.1172C56.5605 20.1172 55.2773 18.5352 55.2773 15.7578C55.2773 12.9863 56.5723 11.3984 58.6875 11.3984C60.8027 11.3984 62.0977 12.9863 62.0977 15.7578C62.0977 18.5469 60.8086 20.1172 58.6875 20.1172ZM57.082 15.7578C57.0703 17.7148 57.7031 18.6641 58.6875 18.6641C59.6719 18.6641 60.2988 17.7148 60.293 15.7578C60.2988 13.8184 59.666 12.8457 58.6875 12.8398C57.709 12.8457 57.082 13.8184 57.082 15.7578ZM66.6094 20.1172C64.4824 20.1172 63.1992 18.5352 63.1992 15.7578C63.1992 12.9863 64.4941 11.3984 66.6094 11.3984C68.7246 11.3984 70.0195 12.9863 70.0195 15.7578C70.0195 18.5469 68.7305 20.1172 66.6094 20.1172ZM65.0039 15.7578C64.9922 17.7148 65.625 18.6641 66.6094 18.6641C67.5938 18.6641 68.2207 17.7148 68.2148 15.7578C68.2207 13.8184 67.5879 12.8457 66.6094 12.8398C65.6309 12.8457 65.0039 13.8184 65.0039 15.7578Z" fill="white"/>
<path d="M43.232 37C42.4622 38.3333 40.5377 38.3333 39.7679 37L36.3038 31C35.534 29.6667 36.4963 28 38.0359 28L44.9641 28C46.5037 28 47.466 29.6667 46.6962 31L43.232 37Z" fill="#1C1E22"/>
<defs>
<linearGradient id="paint0_linear_1_1473" x1="4" y1="5.19333" x2="28" y2="28" gradientUnits="userSpaceOnUse">
<stop stop-color="#EA0098"/>
<stop offset="0.5" stop-color="#FA1155"/>
</linearGradient>
</defs>
</svg>
