<svg width="16" height="16" viewBox="0 0 16 16" fill="none" xmlns="http://www.w3.org/2000/svg">
    <g clip-path="url(#clip0_1_1549)">
        <path fill-rule="evenodd" clip-rule="evenodd"
              d="M14.8933 11.2752L12.2407 9.22191C12.1126 9.12305 11.9528 9.07426 11.7913 9.08469C11.6298 9.09512 11.4777 9.16405 11.3633 9.27858L9.95534 10.6872C9.85047 10.7932 9.71292 10.8606 9.56495 10.8786C9.41698 10.8967 9.26725 10.8642 9.14001 10.7866C8.68668 10.5086 7.92801 9.96991 6.97868 9.01991C6.02934 8.07124 5.49068 7.31191 5.21268 6.85924C5.13492 6.73211 5.10248 6.5824 5.12064 6.43448C5.1388 6.28656 5.20648 6.14914 5.31268 6.04458L6.72068 4.63591C6.83536 4.52164 6.90435 4.36941 6.91466 4.20784C6.92497 4.04627 6.8759 3.8865 6.77668 3.75858L4.72401 1.10524C4.25734 0.503245 3.37734 0.407911 2.80401 0.911245C2.04868 1.57391 1.14134 2.56658 0.877344 3.68058C0.399344 5.68724 1.15468 8.20524 4.47468 11.5252C7.79468 14.8446 10.3127 15.6006 12.3187 15.1232C13.4327 14.8579 14.426 13.9499 15.0887 13.1952C15.5913 12.6219 15.496 11.7419 14.8933 11.2752Z"
              fill="white"/>
    </g>
    <defs>
        <clipPath id="clip0_1_1549">
            <rect width="16" height="16" fill="white"/>
        </clipPath>
    </defs>
</svg>
