<svg width="36" height="36" viewBox="0 0 36 36" fill="none" xmlns="http://www.w3.org/2000/svg">
    <rect width="36" height="36" rx="18" fill="#FEFEFF" fill-opacity="0.2"/>
    <path fill-rule="evenodd" clip-rule="evenodd"
          d="M19.5124 17.9999L24.2215 13.2908C24.3145 13.1979 24.3882 13.0877 24.4385 12.9663C24.4888 12.845 24.5147 12.7149 24.5147 12.5836C24.5148 12.4522 24.4889 12.3221 24.4387 12.2008C24.3885 12.0794 24.3148 11.9691 24.222 11.8762C24.1291 11.7833 24.0189 11.7096 23.8975 11.6593C23.7762 11.609 23.6461 11.583 23.5148 11.583C23.3834 11.583 23.2533 11.6088 23.132 11.659C23.0106 11.7093 22.9003 11.7829 22.8074 11.8758L18.0982 16.5858L13.3882 11.8758C13.1985 11.6986 12.9474 11.602 12.6878 11.6065C12.4283 11.611 12.1807 11.7161 11.9972 11.8997C11.8137 12.0833 11.7087 12.331 11.7044 12.5906C11.7001 12.8501 11.7968 13.1012 11.974 13.2908L16.684 17.9999L11.974 22.7091C11.8348 22.8493 11.7402 23.0275 11.702 23.2213C11.6638 23.4151 11.6838 23.6159 11.7594 23.7984C11.835 23.9809 11.9629 24.1369 12.127 24.2469C12.2911 24.3569 12.484 24.416 12.6815 24.4166C12.9374 24.4166 13.1932 24.3191 13.3882 24.1241L18.0982 19.4141L22.8074 24.1241C22.9001 24.2172 23.0103 24.291 23.1317 24.3414C23.253 24.3917 23.3831 24.4177 23.5145 24.4177C23.6458 24.4177 23.7759 24.3917 23.8973 24.3414C24.0186 24.291 24.1288 24.2172 24.2215 24.1241C24.3145 24.0312 24.3883 23.9209 24.4386 23.7995C24.4889 23.6781 24.5148 23.548 24.5148 23.4166C24.5148 23.2852 24.4889 23.1551 24.4386 23.0337C24.3883 22.9123 24.3145 22.802 24.2215 22.7091L19.5124 17.9999Z"
          fill="white"/>
</svg>
