<svg width="20" height="20" viewBox="0 0 20 20" fill="none" xmlns="http://www.w3.org/2000/svg">
<path d="M10 1.27246C13.7742 1.27246 16.847 4.27594 16.957 8.02344L16.96 8.23242V15.9287H17.4453C17.9185 15.9289 18.3225 16.2695 18.4033 16.7344L18.75 18.7275H1.25L1.5957 16.7354C1.67734 16.2697 2.08141 15.9289 2.55371 15.9287H3.03906V8.2334C3.03906 4.3884 6.15667 1.27246 10 1.27246ZM10.001 11.1162C9.45517 11.1162 9.01371 11.5574 9.01367 12.1016C9.01367 12.6457 9.45514 13.0879 10.001 13.0879C10.5451 13.0878 10.9863 12.6457 10.9863 12.1016C10.9863 11.5566 10.5442 11.1163 10.001 11.1162ZM10 5.2666C9.58584 5.2666 9.25001 5.60328 9.25 6.0166V9.11328C9.25 9.52828 9.58583 9.86523 10 9.86523C10.415 9.86523 10.75 9.52828 10.75 9.11328V6.0166C10.75 5.60328 10.415 5.2666 10 5.2666Z" fill="#C8C8C8"/>
</svg>
