<svg width="16" height="16" viewBox="0 0 16 16" fill="none" xmlns="http://www.w3.org/2000/svg">
<path fill-rule="evenodd" clip-rule="evenodd" d="M8.76929 1.28464L10.3206 4.42797C10.4453 4.68064 10.6866 4.85597 10.966 4.89664L14.4346 5.40064C15.1373 5.50264 15.4186 6.36731 14.9093 6.86264L12.3993 9.30931C12.2998 9.40634 12.2254 9.52608 12.1824 9.65823C12.1394 9.79038 12.1292 9.93099 12.1526 10.068L12.7453 13.5226C12.8653 14.2233 12.1306 14.7566 11.502 14.4266L8.39929 12.7953C8.27636 12.7306 8.13953 12.6968 8.00062 12.6968C7.86171 12.6968 7.72488 12.7306 7.60195 12.7953L4.49929 14.4266C3.86995 14.7566 3.13528 14.2233 3.25529 13.5226L3.84795 10.068C3.87129 9.931 3.86104 9.7904 3.81807 9.65826C3.77511 9.52611 3.70072 9.40637 3.60128 9.30931L1.09129 6.86264C0.582618 6.36731 0.863285 5.50264 1.56662 5.40064L5.03462 4.89664C5.31395 4.85597 5.55595 4.68064 5.68062 4.42797L7.23129 1.28464C7.54595 0.647307 8.45462 0.647307 8.76929 1.28464Z" fill="#EBB64D"/>
</svg>
