<svg width="105" height="16" viewBox="0 0 105 16" fill="none" xmlns="http://www.w3.org/2000/svg">
    <path d="M100.821 15.9292C100.317 15.9292 99.8375 15.8191 99.3812 15.5988C98.9407 15.3628 98.5789 15.001 98.2957 14.5133C98.0282 14.0256 97.8945 13.4041 97.8945 12.649C97.8945 12.2399 97.9338 11.705 98.0125 11.0442C98.0912 10.3835 98.1934 9.65978 98.3193 8.87315C98.4609 8.08652 98.6025 7.2999 98.7441 6.51327C98.4294 6.529 98.1226 6.56047 97.8237 6.60767C97.5405 6.65486 97.2573 6.70993 96.9741 6.77286L96.927 6.60767C97.2416 6.23008 97.572 5.90757 97.9181 5.64012C98.2642 5.37266 98.6261 5.15241 99.0036 4.97935C99.2082 3.941 99.3812 3.04425 99.5228 2.28908C99.6644 1.51819 99.7352 1.06195 99.7352 0.920353C99.7352 0.6529 99.9397 0.432644 100.349 0.259586C100.774 0.0865287 101.246 0 101.765 0C102.221 0 102.646 0.0865287 103.039 0.259586C103.448 0.432644 103.723 0.723696 103.865 1.13274C103.771 1.22714 103.637 1.58112 103.464 2.19469C103.291 2.79253 103.11 3.52409 102.921 4.38938C103.22 4.40511 103.527 4.42084 103.841 4.43658C104.156 4.45231 104.479 4.47591 104.809 4.50737C104.84 4.60177 104.864 4.70403 104.88 4.81416C104.895 4.92428 104.903 5.04228 104.903 5.16814C104.903 5.40413 104.864 5.66371 104.785 5.9469C104.722 6.21435 104.644 6.45821 104.549 6.67846C104.172 6.647 103.818 6.61553 103.487 6.58407C103.157 6.53687 102.835 6.5054 102.52 6.48967C102.394 7.16617 102.276 7.84267 102.166 8.51917C102.071 9.19567 101.993 9.80924 101.93 10.3599C101.883 10.9105 101.859 11.3432 101.859 11.6578C101.859 12.3186 101.977 12.7591 102.213 12.9793C102.465 13.1996 102.764 13.3097 103.11 13.3097C103.424 13.3097 103.708 13.2468 103.959 13.1209C104.211 12.9951 104.392 12.8456 104.502 12.6726L104.738 12.7434C104.644 13.3884 104.392 13.9548 103.983 14.4425C103.574 14.9144 103.086 15.2842 102.52 15.5516C101.953 15.8033 101.387 15.9292 100.821 15.9292Z"
          fill="#FA1155"/>
    <path d="M90.1217 16.0002C88.9732 16.0002 88.0214 15.772 87.2663 15.3158C86.5111 14.8438 85.9447 14.2302 85.5672 13.4751C85.1896 12.7042 85.0008 11.8782 85.0008 10.9972C85.0008 10.1634 85.1581 9.32955 85.4728 8.49573C85.8031 7.64617 86.2751 6.87528 86.8887 6.18305C87.518 5.49081 88.2731 4.93231 89.1542 4.50753C90.0509 4.08275 91.0578 3.87036 92.1748 3.87036C93.5593 3.87036 94.5662 4.18501 95.1955 4.81431C95.8405 5.42788 96.163 6.17518 96.163 7.0562C96.163 7.81136 95.9585 8.51146 95.5494 9.15649C95.1561 9.7858 94.6291 10.2971 93.9683 10.6904C93.3076 11.068 92.5839 11.2568 91.7972 11.2568C91.3882 11.2568 90.9713 11.1939 90.5465 11.068C90.1217 10.9421 89.7048 10.7455 89.2958 10.478C89.3744 11.4534 89.6576 12.1614 90.1453 12.6019C90.633 13.0424 91.2151 13.2627 91.8916 13.2627C92.3636 13.2627 92.8356 13.1762 93.3076 13.0031C93.7795 12.8143 94.2122 12.5783 94.6055 12.2951C95.0145 11.9962 95.3292 11.6816 95.5494 11.3512L95.7146 11.4692C95.7146 12.2873 95.5416 12.9874 95.1955 13.5695C94.8651 14.1358 94.4246 14.6 93.8739 14.9618C93.3233 15.3237 92.7176 15.5911 92.0568 15.7642C91.4118 15.9215 90.7668 16.0002 90.1217 16.0002ZM90.6645 9.62847C91.1679 9.62847 91.577 9.48688 91.8916 9.20369C92.2063 8.90477 92.4423 8.55866 92.5996 8.16534C92.7569 7.77203 92.8356 7.42592 92.8356 7.127C92.8356 6.76515 92.7333 6.46623 92.5288 6.23024C92.3243 5.97852 92.0411 5.85266 91.6792 5.85266C91.3961 5.85266 91.0814 5.95492 90.7353 6.15945C90.4049 6.36397 90.106 6.71795 89.8385 7.22139C89.5711 7.7091 89.398 8.39347 89.3194 9.27449C89.8228 9.51048 90.2712 9.62847 90.6645 9.62847Z"
          fill="#FA1155"/>
    <path d="M77.8151 16.0002C76.6666 16.0002 75.7148 15.772 74.9596 15.3158C74.2045 14.8438 73.6381 14.2302 73.2605 13.4751C72.8829 12.7042 72.6941 11.8782 72.6941 10.9972C72.6941 10.1634 72.8515 9.32955 73.1661 8.49573C73.4965 7.64617 73.9685 6.87528 74.582 6.18305C75.2113 5.49081 75.9665 4.93231 76.8475 4.50753C77.7443 4.08275 78.7512 3.87036 79.8682 3.87036C81.2526 3.87036 82.2595 4.18501 82.8888 4.81431C83.5339 5.42788 83.8564 6.17518 83.8564 7.0562C83.8564 7.81136 83.6519 8.51146 83.2428 9.15649C82.8495 9.7858 82.3225 10.2971 81.6617 10.6904C81.0009 11.068 80.2772 11.2568 79.4906 11.2568C79.0816 11.2568 78.6646 11.1939 78.2399 11.068C77.8151 10.9421 77.3982 10.7455 76.9891 10.478C77.0678 11.4534 77.351 12.1614 77.8387 12.6019C78.3264 13.0424 78.9085 13.2627 79.585 13.2627C80.057 13.2627 80.5289 13.1762 81.0009 13.0031C81.4729 12.8143 81.9055 12.5783 82.2989 12.2951C82.7079 11.9962 83.0226 11.6816 83.2428 11.3512L83.408 11.4692C83.408 12.2873 83.2349 12.9874 82.8888 13.5695C82.5584 14.1358 82.1179 14.6 81.5673 14.9618C81.0167 15.3237 80.411 15.5911 79.7502 15.7642C79.1052 15.9215 78.4601 16.0002 77.8151 16.0002ZM78.3579 9.62847C78.8613 9.62847 79.2703 9.48688 79.585 9.20369C79.8996 8.90477 80.1356 8.55866 80.293 8.16534C80.4503 7.77203 80.5289 7.42592 80.5289 7.127C80.5289 6.76515 80.4267 6.46623 80.2222 6.23024C80.0176 5.97852 79.7345 5.85266 79.3726 5.85266C79.0894 5.85266 78.7748 5.95492 78.4287 6.15945C78.0983 6.36397 77.7993 6.71795 77.5319 7.22139C77.2644 7.7091 77.0914 8.39347 77.0127 9.27449C77.5162 9.51048 77.9645 9.62847 78.3579 9.62847Z"
          fill="#FA1155"/>
    <path d="M55.6323 15.9296C55.066 15.9296 54.5547 15.7015 54.0984 15.2452C53.6579 14.7733 53.4376 14.1282 53.4376 13.3101C53.4376 12.9011 53.4927 12.437 53.6028 11.9178C53.713 11.3829 53.831 10.8401 53.9568 10.2895C54.0984 9.73885 54.2243 9.21967 54.3344 8.73196C54.4445 8.24426 54.4996 7.83521 54.4996 7.50483C54.4996 7.23737 54.4367 7.02498 54.3108 6.86766C54.1849 6.6946 54.0197 6.60807 53.8152 6.60807C53.5478 6.60807 53.2567 6.7654 52.9421 7.08005L52.8005 6.98565C52.7847 6.73393 52.8398 6.43501 52.9657 6.0889C53.0915 5.74278 53.296 5.4124 53.5792 5.09775C53.8624 4.76736 54.2321 4.49205 54.6884 4.27179C55.1446 4.05153 55.6874 3.94141 56.3167 3.94141C57.0247 3.94141 57.5517 4.19313 57.8978 4.69657C58.2597 5.18428 58.4406 5.77425 58.4406 6.46648C58.4406 6.54514 58.4406 6.63167 58.4406 6.72607C58.4406 6.80473 58.4327 6.88339 58.417 6.96205C58.7159 6.47434 59.062 6.00237 59.4553 5.54613C59.8644 5.08988 60.3206 4.7123 60.8241 4.41338C61.3432 4.09873 61.9017 3.94141 62.4996 3.94141C63.2705 3.94141 63.8054 4.19313 64.1043 4.69657C64.4032 5.18428 64.5527 5.74278 64.5527 6.37208C64.5527 6.49794 64.5448 6.6238 64.5291 6.74966C64.5291 6.85979 64.5212 6.96992 64.5055 7.08005C64.8359 6.59234 65.1977 6.1125 65.591 5.64052C66.0001 5.15281 66.4642 4.75163 66.9834 4.43698C67.5025 4.1066 68.1004 3.94141 68.7769 3.94141C69.6107 3.94141 70.1771 4.18526 70.476 4.67297C70.7906 5.16068 70.948 5.73492 70.948 6.39568C70.948 6.97779 70.8772 7.64642 70.7356 8.40158C70.594 9.14101 70.4524 9.87257 70.3108 10.5963C70.1692 11.32 70.0984 11.9335 70.0984 12.437C70.0984 12.7359 70.1377 12.9798 70.2164 13.1685C70.3108 13.3573 70.4602 13.4517 70.6648 13.4517C70.8378 13.4517 70.9952 13.4045 71.1367 13.3101C71.2941 13.2 71.4042 13.0741 71.4671 12.9326L71.6559 13.0033C71.6559 13.5855 71.4907 14.0968 71.1603 14.5373C70.83 14.9778 70.413 15.3239 69.9096 15.5756C69.4062 15.8116 68.9027 15.9296 68.3993 15.9296C67.7857 15.9296 67.2429 15.7251 66.771 15.316C66.3147 14.907 66.0866 14.2305 66.0866 13.2865C66.0866 12.7044 66.1574 12.0751 66.299 11.3986C66.4563 10.7221 66.6058 10.0692 66.7474 9.43993C66.9047 8.79489 66.9834 8.26785 66.9834 7.85881C66.9834 7.2767 66.7788 6.98565 66.3698 6.98565C66.0709 6.98565 65.772 7.11151 65.473 7.36323C65.1898 7.59922 64.9303 7.92174 64.6943 8.33078C64.474 8.7241 64.2931 9.14101 64.1515 9.58152C64.0099 10.022 63.9391 10.4468 63.9391 10.8559C63.9391 11.2334 63.9784 11.6504 64.0571 12.1066C64.1515 12.5471 64.1987 12.9719 64.1987 13.3809C64.1987 14.199 63.9706 14.8283 63.5143 15.2688C63.0581 15.7093 62.5232 15.9296 61.9096 15.9296C61.3432 15.9296 60.8319 15.7408 60.3757 15.3632C59.9352 14.9856 59.7149 14.4193 59.7149 13.6641C59.7149 13.318 59.7621 12.9011 59.8565 12.4134C59.9509 11.9099 60.0532 11.3908 60.1633 10.8559C60.2892 10.3052 60.3993 9.77818 60.4937 9.27474C60.5881 8.7713 60.6353 8.33078 60.6353 7.9532C60.6353 7.65429 60.5881 7.4183 60.4937 7.24524C60.415 7.07218 60.2498 6.98565 59.9981 6.98565C59.6363 6.98565 59.2901 7.16658 58.9598 7.52842C58.6294 7.89027 58.3462 8.33078 58.1102 8.84996C57.8742 9.3534 57.7169 9.84111 57.6382 10.3131C57.6225 10.4232 57.6068 10.5097 57.591 10.5727C57.591 10.6356 57.591 10.6671 57.591 10.6671C57.591 11.1548 57.6461 11.6032 57.7562 12.0122C57.8663 12.4055 57.9214 12.8146 57.9214 13.2393C57.9214 14.0102 57.6854 14.6553 57.2134 15.1744C56.7572 15.6779 56.2302 15.9296 55.6323 15.9296Z"
          fill="#FA1155"/>
    <path d="M48.0227 15.9292C47.5193 15.9292 47.0394 15.8191 46.5832 15.5988C46.1427 15.3628 45.7808 15.001 45.4976 14.5133C45.2302 14.0256 45.0965 13.4041 45.0965 12.649C45.0965 12.2399 45.1358 11.705 45.2145 11.0442C45.2931 10.3835 45.3954 9.65978 45.5212 8.87315C45.6628 8.08652 45.8044 7.2999 45.946 6.51327C45.6314 6.529 45.3246 6.56047 45.0257 6.60767C44.7425 6.65486 44.4593 6.70993 44.1761 6.77286L44.1289 6.60767C44.4436 6.23008 44.7739 5.90757 45.1201 5.64012C45.4662 5.37266 45.828 5.15241 46.2056 4.97935C46.4101 3.941 46.5832 3.04425 46.7248 2.28908C46.8664 1.51819 46.9372 1.06195 46.9372 0.920353C46.9372 0.6529 47.1417 0.432644 47.5507 0.259586C47.9755 0.0865287 48.4475 0 48.9667 0C49.4229 0 49.8477 0.0865287 50.241 0.259586C50.65 0.432644 50.9254 0.723696 51.067 1.13274C50.9726 1.22714 50.8388 1.58112 50.6658 2.19469C50.4927 2.79253 50.3118 3.52409 50.123 4.38938C50.4219 4.40511 50.7287 4.42084 51.0434 4.43658C51.358 4.45231 51.6805 4.47591 52.0109 4.50737C52.0424 4.60177 52.066 4.70403 52.0817 4.81416C52.0974 4.92428 52.1053 5.04228 52.1053 5.16814C52.1053 5.40413 52.066 5.66371 51.9873 5.9469C51.9244 6.21435 51.8457 6.45821 51.7513 6.67846C51.3737 6.647 51.0198 6.61553 50.6894 6.58407C50.359 6.53687 50.0365 6.5054 49.7218 6.48967C49.596 7.16617 49.478 7.84267 49.3678 8.51917C49.2734 9.19567 49.1948 9.80924 49.1319 10.3599C49.0847 10.9105 49.0611 11.3432 49.0611 11.6578C49.0611 12.3186 49.1791 12.7591 49.415 12.9793C49.6668 13.1996 49.9657 13.3097 50.3118 13.3097C50.6264 13.3097 50.9096 13.2468 51.1614 13.1209C51.4131 12.9951 51.594 12.8456 51.7041 12.6726L51.9401 12.7434C51.8457 13.3884 51.594 13.9548 51.185 14.4425C50.7759 14.9144 50.2882 15.2842 49.7218 15.5516C49.1555 15.8033 48.5891 15.9292 48.0227 15.9292Z"
          fill="#FA1155"/>
    <path d="M37.3241 16.0002C36.1756 16.0002 35.2238 15.772 34.4686 15.3158C33.7134 14.8438 33.1471 14.2302 32.7695 13.4751C32.3919 12.7042 32.2031 11.8782 32.2031 10.9972C32.2031 10.1634 32.3605 9.32955 32.6751 8.49573C33.0055 7.64617 33.4775 6.87528 34.091 6.18305C34.7203 5.49081 35.4755 4.93231 36.3565 4.50753C37.2533 4.08275 38.2602 3.87036 39.3772 3.87036C40.7616 3.87036 41.7685 4.18501 42.3978 4.81431C43.0428 5.42788 43.3654 6.17518 43.3654 7.0562C43.3654 7.81136 43.1608 8.51146 42.7518 9.15649C42.3585 9.7858 41.8314 10.2971 41.1707 10.6904C40.5099 11.068 39.7862 11.2568 38.9996 11.2568C38.5905 11.2568 38.1736 11.1939 37.7488 11.068C37.3241 10.9421 36.9072 10.7455 36.4981 10.478C36.5768 11.4534 36.86 12.1614 37.3477 12.6019C37.8354 13.0424 38.4175 13.2627 39.094 13.2627C39.566 13.2627 40.0379 13.1762 40.5099 13.0031C40.9819 12.8143 41.4145 12.5783 41.8078 12.2951C42.2169 11.9962 42.5315 11.6816 42.7518 11.3512L42.917 11.4692C42.917 12.2873 42.7439 12.9874 42.3978 13.5695C42.0674 14.1358 41.6269 14.6 41.0763 14.9618C40.5256 15.3237 39.9199 15.5911 39.2592 15.7642C38.6141 15.9215 37.9691 16.0002 37.3241 16.0002ZM37.8668 9.62847C38.3703 9.62847 38.7793 9.48688 39.094 9.20369C39.4086 8.90477 39.6446 8.55866 39.8019 8.16534C39.9593 7.77203 40.0379 7.42592 40.0379 7.127C40.0379 6.76515 39.9357 6.46623 39.7311 6.23024C39.5266 5.97852 39.2434 5.85266 38.8816 5.85266C38.5984 5.85266 38.2838 5.95492 37.9376 6.15945C37.6073 6.36397 37.3083 6.71795 37.0409 7.22139C36.7734 7.7091 36.6004 8.39347 36.5217 9.27449C37.0251 9.51048 37.4735 9.62847 37.8668 9.62847Z"
          fill="#FA1155"/>
    <path d="M25.0174 16.0002C23.8689 16.0002 22.9171 15.772 22.162 15.3158C21.4068 14.8438 20.8404 14.2302 20.4629 13.4751C20.0853 12.7042 19.8965 11.8782 19.8965 10.9972C19.8965 10.1634 20.0538 9.32955 20.3685 8.49573C20.6988 7.64617 21.1708 6.87528 21.7844 6.18305C22.4137 5.49081 23.1689 4.93231 24.0499 4.50753C24.9466 4.08275 25.9535 3.87036 27.0705 3.87036C28.455 3.87036 29.4619 4.18501 30.0912 4.81431C30.7362 5.42788 31.0587 6.17518 31.0587 7.0562C31.0587 7.81136 30.8542 8.51146 30.4452 9.15649C30.0518 9.7858 29.5248 10.2971 28.864 10.6904C28.2033 11.068 27.4796 11.2568 26.6929 11.2568C26.2839 11.2568 25.867 11.1939 25.4422 11.068C25.0174 10.9421 24.6005 10.7455 24.1915 10.478C24.2701 11.4534 24.5533 12.1614 25.041 12.6019C25.5287 13.0424 26.1108 13.2627 26.7873 13.2627C27.2593 13.2627 27.7313 13.1762 28.2033 13.0031C28.6752 12.8143 29.1079 12.5783 29.5012 12.2951C29.9102 11.9962 30.2249 11.6816 30.4452 11.3512L30.6103 11.4692C30.6103 12.2873 30.4373 12.9874 30.0912 13.5695C29.7608 14.1358 29.3203 14.6 28.7696 14.9618C28.219 15.3237 27.6133 15.5911 26.9525 15.7642C26.3075 15.9215 25.6625 16.0002 25.0174 16.0002ZM25.5602 9.62847C26.0636 9.62847 26.4727 9.48688 26.7873 9.20369C27.102 8.90477 27.338 8.55866 27.4953 8.16534C27.6526 7.77203 27.7313 7.42592 27.7313 7.127C27.7313 6.76515 27.629 6.46623 27.4245 6.23024C27.22 5.97852 26.9368 5.85266 26.5749 5.85266C26.2918 5.85266 25.9771 5.95492 25.631 6.15945C25.3006 6.36397 25.0017 6.71795 24.7342 7.22139C24.4668 7.7091 24.2937 8.39347 24.2151 9.27449C24.7185 9.51048 25.1669 9.62847 25.5602 9.62847Z"
          fill="#FA1155"/>
    <path d="M2.83448 15.9296C2.26811 15.9296 1.7568 15.7015 1.30056 15.2452C0.860046 14.7733 0.63979 14.1282 0.63979 13.3101C0.63979 12.9011 0.694854 12.437 0.804982 11.9178C0.91511 11.3829 1.0331 10.8401 1.15896 10.2895C1.30056 9.73885 1.42642 9.21967 1.53655 8.73196C1.64667 8.24426 1.70174 7.83521 1.70174 7.50483C1.70174 7.23737 1.63881 7.02498 1.51295 6.86766C1.38709 6.6946 1.22189 6.60807 1.01737 6.60807C0.749918 6.60807 0.458866 6.7654 0.144215 7.08005L0.00262208 6.98565C-0.0131105 6.73393 0.0419536 6.43501 0.167814 6.0889C0.293674 5.74278 0.498197 5.4124 0.781383 5.09775C1.06457 4.76736 1.43428 4.49205 1.89053 4.27179C2.34677 4.05153 2.88954 3.94141 3.51885 3.94141C4.22681 3.94141 4.75385 4.19313 5.09997 4.69657C5.46181 5.18428 5.64274 5.77425 5.64274 6.46648C5.64274 6.54514 5.64274 6.63167 5.64274 6.72607C5.64274 6.80473 5.63487 6.88339 5.61914 6.96205C5.91806 6.47434 6.26417 6.00237 6.65749 5.54613C7.06653 5.08988 7.52278 4.7123 8.02622 4.41338C8.54539 4.09873 9.1039 3.94141 9.70173 3.94141C10.4726 3.94141 11.0075 4.19313 11.3065 4.69657C11.6054 5.18428 11.7548 5.74278 11.7548 6.37208C11.7548 6.49794 11.747 6.6238 11.7312 6.74966C11.7312 6.85979 11.7234 6.96992 11.7076 7.08005C12.038 6.59234 12.3999 6.1125 12.7932 5.64052C13.2022 5.15281 13.6663 4.75163 14.1855 4.43698C14.7047 4.1066 15.3025 3.94141 15.979 3.94141C16.8128 3.94141 17.3792 4.18526 17.6781 4.67297C17.9928 5.16068 18.1501 5.73492 18.1501 6.39568C18.1501 6.97779 18.0793 7.64642 17.9377 8.40158C17.7961 9.14101 17.6545 9.87257 17.5129 10.5963C17.3713 11.32 17.3006 11.9335 17.3006 12.437C17.3006 12.7359 17.3399 12.9798 17.4185 13.1685C17.5129 13.3573 17.6624 13.4517 17.8669 13.4517C18.04 13.4517 18.1973 13.4045 18.3389 13.3101C18.4962 13.2 18.6064 13.0741 18.6693 12.9326L18.8581 13.0033C18.8581 13.5855 18.6929 14.0968 18.3625 14.5373C18.0321 14.9778 17.6152 15.3239 17.1118 15.5756C16.6083 15.8116 16.1049 15.9296 15.6014 15.9296C14.9879 15.9296 14.4451 15.7251 13.9731 15.316C13.5169 14.907 13.2888 14.2305 13.2888 13.2865C13.2888 12.7044 13.3595 12.0751 13.5011 11.3986C13.6585 10.7221 13.8079 10.0692 13.9495 9.43993C14.1068 8.79489 14.1855 8.26785 14.1855 7.85881C14.1855 7.2767 13.981 6.98565 13.5719 6.98565C13.273 6.98565 12.9741 7.11151 12.6752 7.36323C12.392 7.59922 12.1324 7.92174 11.8964 8.33078C11.6762 8.7241 11.4952 9.14101 11.3537 9.58152C11.2121 10.022 11.1413 10.4468 11.1413 10.8559C11.1413 11.2334 11.1806 11.6504 11.2593 12.1066C11.3537 12.5471 11.4008 12.9719 11.4008 13.3809C11.4008 14.199 11.1727 14.8283 10.7165 15.2688C10.2602 15.7093 9.72533 15.9296 9.11176 15.9296C8.54539 15.9296 8.03408 15.7408 7.57784 15.3632C7.13733 14.9856 6.91707 14.4193 6.91707 13.6641C6.91707 13.318 6.96427 12.9011 7.05867 12.4134C7.15306 11.9099 7.25532 11.3908 7.36545 10.8559C7.49131 10.3052 7.60144 9.77818 7.69583 9.27474C7.79023 8.7713 7.83743 8.33078 7.83743 7.9532C7.83743 7.65429 7.79023 7.4183 7.69583 7.24524C7.61717 7.07218 7.45198 6.98565 7.20026 6.98565C6.83841 6.98565 6.4923 7.16658 6.16191 7.52842C5.83153 7.89027 5.54834 8.33078 5.31236 8.84996C5.07637 9.3534 4.91904 9.84111 4.84038 10.3131C4.82465 10.4232 4.80891 10.5097 4.79318 10.5727C4.79318 10.6356 4.79318 10.6671 4.79318 10.6671C4.79318 11.1548 4.84825 11.6032 4.95837 12.0122C5.0685 12.4055 5.12356 12.8146 5.12356 13.2393C5.12356 14.0102 4.88758 14.6553 4.4156 15.1744C3.95936 15.6779 3.43232 15.9296 2.83448 15.9296Z"
          fill="#FA1155"/>
</svg>
